<svg width="660" height="661" viewBox="0 0 660 661" fill="none" xmlns="http://www.w3.org/2000/svg">
<g clip-path="url(#clip0_1294_200)">
<circle cx="330" cy="330.244" r="330" fill="#FBCE51"/>
<g style="mix-blend-mode:overlay">
<path d="M540.94 566.764L540.349 566.076L541.53 564.698L535.332 557.713L535.725 560.468L536.02 568.929L536.315 569.322L537.693 568.437L538.283 569.126L534.446 572.569L533.856 571.88L534.84 570.7L527.166 561.943L525.886 562.829L525.296 562.14L529.232 558.697L529.822 559.385L528.74 560.566L535.036 567.65L534.643 565.092L534.348 556.434L533.856 555.942L532.38 556.926L531.79 556.237L535.725 552.793L536.315 553.482L535.233 554.663L542.907 563.419L544.186 562.632L544.777 563.321L540.94 566.764Z" fill="#313131"/>
<path d="M531.298 574.733C530.904 575.225 530.609 575.52 530.314 575.816C530.019 576.111 529.724 576.406 529.428 576.603C528.248 577.587 527.166 578.177 526.182 578.275C525.198 578.374 524.411 578.078 523.722 577.193C523.132 576.406 522.837 575.619 522.935 574.733C523.033 573.848 523.427 573.061 524.017 572.372C523.132 573.061 522.246 573.356 521.361 573.356C520.475 573.258 519.787 572.864 519.196 572.175C518.311 571.093 518.016 570.109 518.212 569.027C518.409 567.945 519.196 566.862 520.574 565.682C521.164 565.19 521.754 564.796 522.246 564.6C522.738 564.304 523.23 564.108 523.525 564.009C523.82 563.911 524.017 563.812 524.116 563.812L525.887 566.567L525.198 567.158L523.23 565.583C522.541 565.682 521.853 566.075 520.967 566.764C520.279 567.256 519.983 567.846 519.983 568.535C519.983 569.224 520.279 569.912 520.869 570.7C521.361 571.29 521.951 571.683 522.64 571.782C523.329 571.88 524.116 571.585 525.001 570.896L525.985 570.109L526.674 570.896L525.788 571.585C525.395 571.88 525.099 572.274 524.804 572.766C524.608 573.258 524.509 573.749 524.509 574.241C524.608 574.733 524.804 575.324 525.198 575.816C525.69 576.504 526.28 576.799 526.87 576.799C527.461 576.799 528.051 576.504 528.74 576.012C529.133 575.619 529.527 575.324 529.724 574.93C529.92 574.537 530.019 574.241 530.019 574.045L529.232 572.47L530.117 571.683L532.085 573.848C531.987 573.946 531.691 574.241 531.298 574.733Z" fill="#313131"/>
<path d="M518.016 583.982L519.393 583.293L519.983 584.08L517.917 585.556C517.622 585.851 517.13 586.146 516.638 586.54C516.146 586.933 515.851 587.228 515.654 587.425C514.277 588.409 513.096 588.901 512.211 588.901C511.325 588.901 510.538 588.507 509.948 587.622C509.456 586.933 509.161 586.146 509.259 585.359C509.259 584.572 509.653 583.785 510.243 583.195C509.259 583.883 508.374 584.277 507.488 584.178C506.603 584.08 505.816 583.687 505.225 582.801C504.438 581.817 504.242 580.735 504.537 579.554C504.832 578.374 505.717 577.193 507.39 576.012C507.783 575.717 508.079 575.52 508.472 575.324C509.259 574.832 509.751 574.438 509.948 574.34L511.916 572.864L512.408 573.651L511.227 574.733L518.016 583.982ZM507.882 576.701C506.898 577.488 506.308 578.177 506.111 578.964C505.914 579.751 506.209 580.44 506.701 581.227C507.292 582.014 507.882 582.408 508.571 582.506C509.259 582.604 510.046 582.309 510.932 581.62C511.916 580.833 512.604 580.44 512.9 580.145L509.653 575.619C509.259 575.717 508.767 576.111 507.882 576.701ZM512.604 581.719L511.817 582.309C511.129 582.801 510.735 583.391 510.637 584.08C510.538 584.769 510.735 585.457 511.325 586.146C511.817 586.835 512.408 587.228 512.998 587.327C513.588 587.425 514.375 587.13 515.261 586.441C515.654 586.146 515.95 585.851 516.343 585.556L516.638 585.261L513.588 581.03C513.391 581.227 513.096 581.424 512.604 581.719Z" fill="#313131"/>
<path d="M505.422 594.313L503.75 595.493L492.829 587.229L491.747 587.721L491.255 586.934L495.387 584.179L495.879 584.966L494.698 585.95L496.961 587.819L501.487 584.769L500.7 582.014L499.224 582.703L498.732 581.916L502.471 579.456L502.963 580.243L502.077 581.031L505.422 594.313ZM502.864 592.443L504.143 593.525L503.553 591.853L501.782 585.851L497.846 588.508L502.864 592.443Z" fill="#313131"/>
<path d="M488.893 589.098C490.074 589.098 491.058 589.393 492.042 590.082C493.026 590.77 493.911 591.656 494.6 592.935C495.288 594.116 495.682 595.296 495.78 596.575C495.879 597.854 495.584 598.937 494.993 599.92C494.403 600.904 493.616 601.79 492.534 602.478C491.746 602.97 490.664 603.462 489.385 603.856L488.795 604.053L487.221 601.101L488.303 600.412L489.976 602.183C490.172 602.183 490.566 602.183 490.959 602.085C491.353 601.986 491.845 601.691 492.435 601.396C493.124 601.003 493.616 600.412 493.911 599.724C494.206 599.035 494.305 598.149 494.108 597.264C493.911 596.379 493.517 595.296 492.927 594.312C492.337 593.329 491.648 592.443 490.861 591.853C490.074 591.262 489.287 590.77 488.5 590.672C487.713 590.574 486.827 590.672 486.04 591.164C485.45 591.459 485.056 591.853 484.859 592.049C484.663 592.246 484.466 592.64 484.368 592.935L484.663 594.903L483.58 595.395L482.597 592.935C482.793 592.837 483.089 592.541 483.482 592.148C483.777 591.754 484.072 591.459 484.466 591.164C484.761 590.869 485.253 590.574 485.745 590.279C486.63 589.491 487.713 589.098 488.893 589.098Z" fill="#313131"/>
<path d="M479.055 606.807C478.956 607.89 478.661 608.972 478.169 609.759C477.579 610.645 476.89 611.333 476.005 611.727C474.923 612.317 473.84 612.514 472.856 612.416C471.873 612.317 470.889 611.924 470.003 611.235C469.118 610.546 468.331 609.661 467.74 608.382C467.052 607.004 466.658 605.725 466.56 604.545C466.461 603.266 466.757 602.183 467.248 601.2C467.74 600.216 468.527 599.527 469.511 598.937C470.594 598.346 471.676 598.051 472.758 598.15C473.84 598.248 474.726 598.641 475.611 599.232C476.497 599.921 477.284 600.806 477.874 602.085L480.531 600.708L477.973 595.887L476.497 596.477L476.103 595.69L480.629 593.23L481.023 594.017L479.744 594.903L485.253 605.135L486.631 604.643L487.024 605.43L482.597 607.791L482.203 607.004L483.482 606.119L481.121 601.691L478.464 603.167C478.858 604.545 479.055 605.725 479.055 606.807ZM477.284 608.185C477.382 606.906 476.989 605.43 476.005 603.561C475.119 601.987 474.136 600.806 473.053 600.216C471.971 599.625 470.889 599.527 469.708 600.117C468.626 600.708 468.134 601.593 468.036 602.774C467.937 603.954 468.429 605.529 469.413 607.398C470.298 608.972 471.184 610.153 472.266 610.743C473.348 611.432 474.431 611.432 475.414 610.841C476.595 610.349 477.185 609.464 477.284 608.185Z" fill="#313131"/>
<path d="M458.295 611.53C457.607 611.136 456.623 610.644 455.54 609.956C454.753 609.464 454.261 609.07 453.868 608.873C453.474 608.677 453.179 608.578 452.982 608.578L452.294 608.677L451.9 607.89L453.966 606.906C454.261 606.807 454.655 606.906 455.147 607.201C455.639 607.496 456.426 607.988 457.311 608.677C458.394 609.464 459.181 609.956 459.869 610.349C460.46 610.743 460.952 610.841 461.345 610.644L462.427 610.152L460.165 605.331L458.59 605.823L458.197 605.036L462.821 602.872L463.215 603.757L461.936 604.544L466.855 615.072L468.331 614.678L468.724 615.564L464.198 617.63L463.805 616.548L465.084 615.662L462.821 610.743L461.345 611.431L460.165 617.925L461.64 617.433L462.034 618.318L457.902 620.286L457.508 619.401L458.787 618.614L460.165 611.923C459.673 612.022 458.984 611.825 458.295 611.53Z" fill="#313131"/>
<path d="M449.145 609.66C450.228 609.857 451.113 610.349 451.9 611.235C452.687 612.022 453.376 613.104 453.966 614.383C454.557 615.662 454.753 616.941 454.655 618.22C454.557 619.401 454.163 620.483 453.573 621.368C452.884 622.254 452.097 622.942 450.916 623.434C449.145 624.222 447.473 624.222 446.095 623.434C444.718 622.647 443.537 621.368 442.75 619.302C442.16 617.925 441.963 616.646 442.062 615.465C442.16 614.186 442.554 613.202 443.144 612.218C443.833 611.333 444.718 610.644 445.8 610.152C446.981 609.66 448.063 609.464 449.145 609.66ZM452.687 619.893C452.884 618.614 452.687 617.138 451.9 615.17C451.212 613.399 450.326 612.218 449.244 611.431C448.162 610.644 447.079 610.546 445.997 611.038C444.915 611.53 444.226 612.317 444.029 613.596C443.833 614.875 444.029 616.449 444.816 618.318C445.505 620.089 446.391 621.27 447.473 621.959C448.457 622.647 449.539 622.844 450.72 622.352C451.802 622.057 452.491 621.172 452.687 619.893Z" fill="#313131"/>
<path d="M441.668 625.697L443.144 625.402L443.439 626.288L441.078 627.173C440.684 627.272 440.192 627.567 439.602 627.764C439.012 628.059 438.618 628.157 438.421 628.256C436.847 628.846 435.568 629.043 434.683 628.747C433.797 628.452 433.207 627.862 432.813 626.878C432.518 626.091 432.518 625.205 432.715 624.517C432.912 623.828 433.502 623.139 434.289 622.647C433.207 623.041 432.223 623.139 431.338 622.844C430.452 622.549 429.862 621.86 429.567 620.975C429.173 619.794 429.173 618.712 429.763 617.63C430.354 616.548 431.534 615.662 433.502 614.973C433.896 614.777 434.289 614.678 434.781 614.58C435.667 614.285 436.257 614.088 436.454 614.088L438.815 613.202L439.11 614.088L437.733 614.777L441.668 625.697ZM433.896 615.957C432.715 616.351 431.928 616.941 431.633 617.63C431.239 618.318 431.239 619.106 431.633 619.991C431.928 620.877 432.42 621.467 433.01 621.664C433.6 621.86 434.486 621.86 435.47 621.467C436.65 621.073 437.438 620.778 437.733 620.581L435.863 615.367C435.47 615.367 434.879 615.564 433.896 615.957ZM437.142 622.057L436.159 622.451C435.371 622.746 434.781 623.238 434.584 623.828C434.388 624.418 434.388 625.205 434.683 625.993C434.978 626.78 435.371 627.37 435.962 627.567C436.552 627.764 437.339 627.764 438.323 627.37C438.716 627.173 439.208 627.075 439.602 626.78L439.996 626.583L438.225 621.664C437.929 621.762 437.634 621.86 437.142 622.057Z" fill="#313131"/>
<path d="M414.022 635.93L413.726 635.044L415.202 634.356L411.857 623.238L410.086 623.533L409.791 622.648L414.809 621.172L415.104 622.057L413.628 622.648L416.973 633.864L422.68 632.191L419.334 620.975L417.662 621.27L417.367 620.385L422.384 618.909L422.68 619.794L421.302 620.385L424.647 631.502L426.221 631.306L426.517 632.191L414.022 635.93Z" fill="#313131"/>
<path d="M406.347 624.32C407.331 624.714 408.217 625.304 408.905 626.288C409.594 627.173 410.086 628.354 410.48 629.732C410.775 631.109 410.873 632.388 410.578 633.569C410.283 634.749 409.791 635.733 409.004 636.52C408.217 637.307 407.233 637.898 406.151 638.193C404.281 638.685 402.707 638.389 401.428 637.504C400.149 636.52 399.264 635.044 398.673 632.88C398.28 631.502 398.28 630.125 398.575 628.944C398.87 627.764 399.362 626.682 400.149 625.894C400.936 625.107 401.92 624.517 403.101 624.222C404.281 623.927 405.364 623.927 406.347 624.32ZM408.414 634.946C408.807 633.765 408.807 632.191 408.315 630.223C407.823 628.452 407.134 627.075 406.249 626.19C405.364 625.304 404.281 625.009 403.101 625.304C401.92 625.599 401.133 626.386 400.739 627.567C400.346 628.748 400.346 630.42 400.838 632.388C401.33 634.257 401.92 635.536 402.904 636.422C403.789 637.307 404.872 637.602 406.052 637.307C407.134 636.815 407.922 636.127 408.414 634.946Z" fill="#313131"/>
<path d="M392.377 632.093C392.278 630.322 392.377 629.043 392.77 628.059C392.967 627.567 393.164 627.173 393.459 626.878C393.754 626.583 394.148 626.386 394.541 626.288C395.131 626.189 395.525 626.091 395.82 626.091L396.214 627.567C395.918 627.567 395.427 627.665 394.836 627.764C394.64 627.764 394.443 627.862 394.246 628.059C394.049 628.256 393.951 628.452 393.852 628.649C393.164 630.322 393.36 633.372 394.246 637.799L394.541 639.275L396.706 639.078L396.902 639.963L386.277 642.128L386.08 641.242L387.752 640.652L385.49 629.239L383.62 629.436L383.423 628.551L389.031 627.468L389.228 628.354L387.359 628.944L389.622 640.357L393.36 639.57L393.065 637.897C392.77 635.733 392.475 633.765 392.377 632.093Z" fill="#313131"/>
<path d="M382.636 641.636H384.211L384.309 642.522L374.864 643.997L374.175 641.144L375.257 640.947L376.045 642.62L380.669 642.03L379.882 636.815L376.832 637.307V638.881L375.848 639.078L375.159 634.847L376.143 634.651L376.635 636.225L379.685 635.831L378.799 630.322L373.585 631.306L372.995 633.765L371.814 633.568V630.223L382.046 628.649L382.145 629.535L380.669 629.928L382.636 641.636Z" fill="#313131"/>
<path d="M367.288 643.997L370.437 643.506L370.633 639.57L371.814 639.472L372.109 644.489L360.5 645.768L359.712 640.849L360.893 640.751L361.975 644.588L365.222 644.293L363.845 632.585L361.188 632.683L361.09 631.798L368.174 631.01L368.272 631.896L365.911 632.388L367.288 643.997Z" fill="#313131"/>
<path d="M352.038 638.586L352.924 638.488C353.219 638.291 353.514 637.799 353.711 637.209C353.908 636.619 354.301 635.831 354.596 634.946C354.892 634.06 355.187 633.372 355.384 632.88C355.58 632.388 355.777 632.191 355.974 632.191L358.532 631.994L358.63 632.88L357.942 633.175C357.745 633.273 357.548 633.372 357.351 633.765C357.154 634.06 356.859 634.651 356.564 635.339C356.171 636.225 355.875 636.914 355.58 637.406C355.285 637.996 354.99 638.291 354.596 638.586C355.482 638.783 356.171 639.177 356.663 639.767C357.154 640.357 357.45 641.144 357.548 642.128C357.646 643.604 357.253 644.686 356.466 645.277C355.58 645.867 354.4 646.26 352.727 646.359C352.334 646.359 351.94 646.359 351.35 646.359C350.759 646.359 350.267 646.359 349.972 646.359L347.316 646.556L347.217 645.67L348.792 645.375L348.005 633.765L346.234 633.667L346.135 632.781L351.645 632.388L351.743 633.273L349.972 633.569L350.366 638.488L352.038 638.586ZM351.251 645.473C351.842 645.473 352.334 645.473 352.727 645.473C353.711 645.375 354.4 645.178 354.892 644.686C355.384 644.194 355.58 643.506 355.482 642.423C355.384 641.439 355.088 640.652 354.498 640.16C353.908 639.668 353.219 639.472 352.235 639.472C351.251 639.57 350.563 639.57 350.267 639.668L350.661 645.375L351.251 645.473Z" fill="#313131"/>
<path d="M340.429 645.965L343.676 645.768L344.168 641.833H345.447L345.25 646.85L333.64 647.146L333.247 642.128H334.427L335.116 646.063H338.363L337.969 634.257L335.313 634.159V633.273L342.495 633.076V633.962L340.035 634.257L340.429 645.965Z" fill="#313131"/>
<path d="M324.785 633.962C325.769 634.552 326.458 635.438 326.95 636.52C327.442 637.602 327.639 638.881 327.639 640.357C327.639 641.734 327.245 643.013 326.655 643.997C326.064 645.08 325.179 645.867 324.195 646.457C323.113 647.047 322.031 647.244 320.752 647.244C319.768 647.244 318.685 647.047 317.308 646.752L316.718 646.654L317.013 643.309H318.292L318.685 645.67C318.882 645.867 319.177 645.965 319.571 646.063C319.965 646.162 320.555 646.26 321.145 646.26C321.932 646.26 322.621 646.063 323.31 645.67C323.9 645.276 324.49 644.588 324.785 643.702C325.179 642.817 325.376 641.734 325.376 640.554C325.376 639.373 325.277 638.291 324.982 637.307C324.687 636.323 324.195 635.536 323.605 634.946C323.014 634.355 322.227 634.06 321.244 634.06C320.555 634.06 320.063 634.06 319.669 634.159C319.276 634.257 318.981 634.454 318.784 634.651L317.997 636.422L316.816 636.225L317.308 633.568C317.603 633.568 317.997 633.47 318.489 633.372C318.981 633.273 319.374 633.175 319.768 633.076C320.161 632.978 320.752 632.978 321.342 632.978C322.621 632.978 323.802 633.273 324.785 633.962Z" fill="#313131"/>
<path d="M309.044 646.457L309.142 645.572L311.011 645.473L311.7 636.127L310.028 638.291L304.223 644.489V644.981L305.895 645.277L305.797 646.162L300.681 645.768L300.779 644.883L302.255 644.785L303.042 633.175L301.468 632.88L301.566 631.994L306.781 632.388L306.682 633.273L305.01 633.372L304.321 642.817L305.895 640.751L311.897 634.454V633.765L310.126 633.47L310.224 632.585L315.439 632.978L315.34 633.864L313.766 633.962L312.979 645.572L314.455 645.867L314.356 646.752L309.044 646.457Z" fill="#313131"/>
<path d="M288.776 644.588L289.17 639.668L290.449 639.767L290.547 643.604L294.581 644.194L295.958 632.486L292.711 631.896L292.81 631.01L300.09 631.797L299.992 632.683H297.926L296.647 644.194L298.615 644.686L298.516 645.571L288.776 644.588Z" fill="#313131"/>
<path d="M285.726 643.014L287.104 643.506L287.005 644.391L281.988 643.604L282.086 642.718H283.66L284.447 637.799L277.954 636.815L277.167 641.735L278.642 642.226L278.544 643.112L273.625 642.325L273.723 641.439H275.199L276.97 629.928L275.494 629.535L275.592 628.649L280.512 629.436L280.413 630.322L278.839 630.223L277.954 635.635L284.447 636.618L285.333 631.207L283.758 630.814L283.857 629.928L288.973 630.715L288.875 631.601L287.399 631.502L285.726 643.014Z" fill="#313131"/>
<path d="M266.836 640.947L264.868 640.554L262.999 626.977L261.917 626.583L262.114 625.698L266.934 626.681L266.738 627.567L265.163 627.468L265.459 630.322L270.771 631.404L272.149 628.846L270.575 628.354L270.771 627.468L275.101 628.354L274.904 629.239L273.723 629.141L266.836 640.947ZM266.246 637.799L266.344 639.472L267.131 637.897L270.181 632.388L265.557 631.404L266.246 637.799Z" fill="#313131"/>
<path d="M256.21 629.535C256.899 627.961 257.588 626.78 258.276 625.993C258.67 625.599 258.965 625.403 259.359 625.206C259.752 625.107 260.146 625.107 260.638 625.206C261.228 625.304 261.622 625.501 261.917 625.599L261.72 627.075C261.425 626.977 261.031 626.878 260.343 626.682C260.146 626.583 259.949 626.583 259.752 626.682C259.555 626.78 259.359 626.878 259.162 627.075C257.883 628.256 256.702 631.109 255.522 635.536L255.128 637.012L257.194 637.799L256.997 638.685L246.568 636.028L246.765 635.143L248.536 635.34L251.389 624.025L249.618 623.435L249.815 622.549L255.423 623.927L255.226 624.812L253.357 624.517L250.504 635.733L254.144 636.619L254.538 634.946C254.931 632.978 255.522 631.109 256.21 629.535Z" fill="#313131"/>
<path d="M227.383 630.322L227.678 629.436L229.449 629.732L232.893 618.614L231.319 617.925L231.614 617.04L236.828 618.712L236.533 619.598L234.86 619.303L231.417 630.42L232.991 631.109L232.696 631.994L227.383 630.322ZM240.173 628.551C238.698 628.059 237.714 627.37 237.123 626.485C236.533 625.599 236.435 624.517 236.828 623.238C237.222 621.861 238.009 620.975 239.091 620.483C240.173 619.991 241.452 619.991 242.928 620.385C243.125 620.483 243.322 620.483 243.518 620.582C243.715 620.68 243.912 620.778 244.109 620.778C244.798 621.074 245.388 621.27 245.88 621.467L248.339 622.254L248.044 623.14L246.47 622.845L243.027 633.962L244.404 634.651L244.109 635.536L238.993 633.962L239.288 633.077L241.157 633.372L242.436 629.24L240.173 628.551ZM243.912 621.861C243.715 621.762 243.42 621.664 242.928 621.566C241.944 621.27 241.059 621.27 240.37 621.664C239.681 622.057 239.189 622.746 238.796 623.828C238.501 624.812 238.501 625.599 238.894 626.288C239.288 626.977 239.977 627.469 240.96 627.764L242.83 628.354L244.699 622.353C244.404 622.058 244.207 621.959 243.912 621.861Z" fill="#313131"/>
<path d="M219.611 626.19L220.89 626.977L220.595 627.862L215.872 625.993L216.167 625.107L217.741 625.501L219.611 620.778L213.511 618.417L211.641 623.14L212.92 623.927L212.625 624.812L208.001 622.943L208.296 622.057L209.772 622.352L214.003 611.53L212.724 610.841L213.019 609.956L217.741 611.825L217.446 612.711L215.97 612.317L214.003 617.335L220.103 619.696L222.07 614.678L220.595 613.891L220.89 613.006L225.711 614.875L225.415 615.761L223.94 615.367L219.611 626.19Z" fill="#313131"/>
<path d="M201.606 620.188L199.737 619.302L200.819 605.627L199.835 604.938L200.229 604.151L204.754 606.119L204.361 607.004L202.885 606.512L202.59 609.365L207.608 611.628L209.575 609.464L208.198 608.677L208.592 607.89L212.625 609.66L212.232 610.448L211.051 610.152L201.606 620.188ZM201.803 617.039L201.606 618.712L202.688 617.335L206.821 612.612L202.492 610.644L201.803 617.039Z" fill="#313131"/>
<path d="M188.029 612.415L189.701 613.596L189.308 614.383L184.88 612.022L186.455 603.364L187.045 601.003L185.471 602.872L179.272 609.07L174.943 606.807L175.337 606.02L177.305 606.807L181.437 595.886L180.059 594.903L180.453 594.115L185.176 596.673L184.782 597.461L183.208 596.87L180.059 604.643L178.682 607.988L180.65 606.02L188.029 598.838L189.111 599.428L187.635 608.775L186.947 612.415L188.914 609.365L193.538 602.282L191.964 601.298L192.358 600.511L196.687 602.773L196.293 603.561L194.817 602.97L188.029 612.415Z" fill="#313131"/>
<path d="M168.647 603.167L166.876 602.085L169.631 588.705L168.745 587.918L169.237 587.13L173.468 589.688L172.976 590.476L171.5 589.885L170.811 592.738L175.534 595.493L177.698 593.525L176.419 592.542L176.911 591.755L180.748 594.017L180.256 594.805L179.174 594.411L168.647 603.167ZM169.237 600.019L168.843 601.692L170.122 600.511L174.845 596.28L170.713 593.821L169.237 600.019Z" fill="#313131"/>
<path d="M160.481 596.673L161.563 597.657L161.071 598.444L159.005 597.067C158.611 596.87 158.218 596.575 157.824 596.378C157.234 596.083 156.644 595.69 156.152 595.394C154.676 594.411 153.79 593.427 153.495 592.443C153.2 591.459 153.495 590.475 154.184 589.295C154.774 588.507 155.364 587.819 156.152 587.524C156.939 587.13 157.824 587.032 158.71 587.13C159.595 587.228 160.481 587.622 161.366 588.212C161.661 588.409 161.956 588.606 162.252 588.803C162.547 588.999 162.743 589.196 162.842 589.196L165.105 585.753L163.039 584.178L163.531 583.391L168.647 586.737L168.155 587.524L166.777 586.835L160.481 596.673ZM160.874 589.098C160.087 588.606 159.202 588.409 158.414 588.507C157.627 588.606 156.742 589.295 156.053 590.475C155.463 591.361 155.266 592.148 155.463 592.836C155.66 593.525 156.25 594.214 157.135 594.804C157.431 595.001 157.824 595.198 158.218 595.394C158.414 595.493 158.611 595.591 158.71 595.69L162.35 590.18C162.055 589.983 161.563 589.59 160.874 589.098Z" fill="#313131"/>
<path d="M156.152 579.358C156.644 580.44 156.742 581.522 156.447 582.703C156.25 583.884 155.66 585.064 154.873 586.245C154.086 587.425 153.102 588.213 152.019 588.704C150.937 589.196 149.757 589.492 148.576 589.295C147.395 589.196 146.313 588.803 145.231 588.016C144.444 587.425 143.558 586.638 142.673 585.654L142.279 585.163L144.345 582.506L145.329 583.195L144.345 585.359C144.444 585.556 144.542 585.851 144.837 586.245C145.132 586.54 145.526 586.933 146.018 587.327C146.707 587.819 147.395 588.016 148.182 588.016C148.969 588.016 149.757 587.721 150.544 587.229C151.331 586.737 152.118 585.95 152.806 584.966C153.495 583.982 153.987 583.096 154.282 582.113C154.577 581.129 154.676 580.243 154.479 579.456C154.282 578.669 153.79 577.98 153.102 577.39C152.61 576.997 152.118 576.8 151.724 576.603C151.331 576.406 151.036 576.406 150.74 576.505L149.068 577.587L148.182 576.8L150.052 574.93C150.248 575.029 150.642 575.226 151.134 575.422C151.626 575.619 152.019 575.718 152.413 575.914C152.807 576.111 153.2 576.406 153.79 576.701C154.971 577.39 155.758 578.276 156.152 579.358Z" fill="#313131"/>
<path d="M121.913 569.322L122.504 568.634L123.979 569.716L130.178 562.632L127.521 563.321L119.159 564.698L118.863 565.092L119.946 566.371L119.355 567.059L115.518 563.616L116.109 562.927L117.388 563.714L125.062 554.958L123.979 553.777L124.57 553.089L128.505 556.532L127.915 557.221L126.537 556.237L120.241 563.419L122.7 562.73L131.26 561.353L131.752 560.861L130.571 559.582L131.162 558.893L135.097 562.337L134.507 563.026L133.228 562.14L125.554 570.896L126.537 572.077L125.947 572.766L121.913 569.322Z" fill="#313131"/>
<path d="M112.763 560.763C112.271 560.468 111.878 560.172 111.484 559.976C111.091 559.779 110.894 559.484 110.599 559.287C109.517 558.205 108.828 557.221 108.533 556.237C108.238 555.253 108.533 554.466 109.32 553.679C110.009 552.99 110.796 552.597 111.681 552.597C112.567 552.597 113.354 552.892 114.141 553.384C113.354 552.597 112.862 551.711 112.862 550.826C112.862 549.94 113.157 549.153 113.747 548.464C114.633 547.481 115.715 546.989 116.797 547.087C117.879 547.185 119.06 547.776 120.437 549.055C120.929 549.547 121.421 550.039 121.716 550.531C122.012 551.023 122.307 551.416 122.504 551.711C122.7 552.006 122.799 552.203 122.799 552.302L120.339 554.368L119.65 553.679L120.929 551.613C120.733 550.924 120.241 550.235 119.454 549.547C118.863 548.956 118.175 548.661 117.584 548.76C116.994 548.858 116.207 549.252 115.518 549.94C115.026 550.531 114.731 551.121 114.633 551.81C114.633 552.498 115.026 553.285 115.813 553.974L116.797 554.86L116.108 555.647L115.321 554.86C114.928 554.466 114.534 554.269 114.042 554.072C113.55 553.876 113.059 553.876 112.567 553.974C112.075 554.072 111.583 554.368 111.091 554.86C110.5 555.45 110.304 556.04 110.304 556.63C110.402 557.221 110.697 557.811 111.288 558.401C111.681 558.795 112.075 559.09 112.468 559.189C112.862 559.385 113.157 559.385 113.354 559.287L114.829 558.303L115.715 559.09L113.846 561.255C113.649 561.255 113.354 561.058 112.763 560.763Z" fill="#313131"/>
<path d="M101.941 548.759L102.826 550.039L102.138 550.629L100.367 548.759C100.072 548.464 99.678 548.071 99.1861 547.677C98.6941 547.284 98.399 546.989 98.2022 546.792C97.0216 545.513 96.4312 544.431 96.2345 543.545C96.1361 542.66 96.4312 541.872 97.2183 541.085C97.907 540.495 98.5958 540.102 99.3828 540.102C100.17 540.003 100.957 540.298 101.646 540.79C100.859 539.905 100.367 539.019 100.367 538.134C100.367 537.248 100.662 536.461 101.449 535.773C102.334 534.887 103.417 534.494 104.597 534.69C105.778 534.789 107.057 535.576 108.533 537.15C108.828 537.445 109.123 537.839 109.418 538.134C110.009 538.822 110.402 539.314 110.599 539.413L112.271 541.184L111.583 541.774L110.402 540.79L101.941 548.759ZM103.515 543.053L102.826 542.266C102.236 541.676 101.646 541.282 100.957 541.282C100.268 541.282 99.678 541.577 98.9893 542.168C98.399 542.758 98.0054 543.348 98.0054 543.939C98.0054 544.529 98.399 545.218 99.0877 546.005C99.3828 546.3 99.7764 546.693 100.072 546.989L100.367 547.284L104.204 543.742C104.204 543.742 103.909 543.447 103.515 543.053ZM107.942 537.74C107.057 536.855 106.27 536.363 105.483 536.264C104.696 536.166 104.007 536.461 103.318 537.15C102.63 537.839 102.236 538.429 102.334 539.118C102.433 539.806 102.728 540.495 103.515 541.282C104.401 542.168 104.892 542.758 105.188 543.053L109.221 539.216C109.025 539.019 108.631 538.527 107.942 537.74Z" fill="#313131"/>
<path d="M90.1346 537.544L88.7572 535.969L95.5458 524.163L94.9555 523.179L95.6442 522.589L98.891 526.328L98.2022 526.918L97.0216 525.836L95.4474 528.295L98.9893 532.427L101.646 531.247L100.76 529.869L101.449 529.279L104.302 532.624L103.613 533.215L102.728 532.427L90.1346 537.544ZM91.6104 534.69L90.6265 536.166L92.2007 535.379L98.0055 532.919L94.8571 529.279L91.6104 534.69Z" fill="#313131"/>
<path d="M93.1846 520.425C93.283 521.507 93.0862 522.688 92.5943 523.671C92.1024 524.655 91.2169 525.737 90.1346 526.623C89.0524 527.508 87.8718 528 86.6911 528.197C85.5105 528.394 84.3299 528.296 83.2476 527.902C82.1654 527.508 81.1815 526.721 80.3944 525.738C79.8041 524.95 79.2138 523.967 78.6235 522.786L78.3283 522.196L81.0831 520.228L81.8702 521.212L80.296 523.081C80.296 523.278 80.3944 523.671 80.5912 524.065C80.7879 524.458 81.0831 524.95 81.4766 525.442C81.9686 526.033 82.5589 526.525 83.346 526.721C84.1331 526.918 84.9202 526.918 85.8056 526.623C86.6911 526.328 87.675 525.836 88.6588 525.049C89.5443 524.36 90.3314 523.573 90.9217 522.688C91.512 521.802 91.8072 521.015 91.8072 520.13C91.9056 519.244 91.6104 518.457 91.0201 517.768C90.6266 517.276 90.233 516.883 89.9379 516.686C89.6427 516.489 89.3475 516.292 88.954 516.292L86.9863 516.784L86.3959 515.8L88.7572 514.521C88.954 514.718 89.2492 515.013 89.6427 515.309C90.0363 515.604 90.4298 515.801 90.7249 516.096C91.0201 516.391 91.4136 516.784 91.8072 517.276C92.5943 518.26 93.0862 519.342 93.1846 520.425Z" fill="#313131"/>
<path d="M74.3928 512.849C73.3106 512.947 72.2283 512.75 71.3429 512.357C70.4574 511.963 69.6703 511.274 69.08 510.389C68.3913 509.405 67.9977 508.421 67.9977 507.339C67.9977 506.257 68.1945 505.273 68.7848 504.387C69.3751 503.403 70.1622 502.616 71.2445 501.829C72.5235 500.944 73.7041 500.452 74.8848 500.157C76.0654 499.96 77.246 500.058 78.2299 500.452C79.2137 500.845 80.0992 501.534 80.7879 502.42C81.4766 503.403 81.8702 504.486 81.9685 505.568C82.0669 506.65 81.7718 507.634 81.1815 508.618C80.5912 509.602 79.8041 510.487 78.7218 511.274L80.4928 513.734L84.9201 510.586L84.1331 509.11L84.9201 508.618L87.8717 512.849L87.0846 513.34L86.0024 512.16L76.5573 518.85L77.246 520.227L76.4589 520.719L73.5073 516.587L74.2944 516.095L75.3767 517.276L79.5089 514.324L77.738 511.865C76.6557 512.455 75.4751 512.849 74.3928 512.849ZM72.8187 511.373C74.0977 511.373 75.5735 510.782 77.246 509.503C78.7218 508.421 79.7057 507.339 80.1976 506.158C80.6895 504.978 80.5911 503.895 79.9024 502.912C79.2137 501.928 78.2299 501.534 77.0492 501.534C75.8686 501.534 74.3928 502.223 72.7203 503.403C71.2445 504.486 70.2606 505.568 69.7687 506.65C69.2767 507.831 69.3751 508.815 70.0638 509.799C70.6541 510.881 71.638 511.373 72.8187 511.373Z" fill="#313131"/>
<path d="M67.2106 492.975C67.5057 492.188 67.8993 491.204 68.4896 490.023C68.8832 489.236 69.1783 488.646 69.3751 488.154C69.5719 487.76 69.5718 487.465 69.5718 487.268L69.3751 486.58L70.1622 486.088L71.4412 488.056C71.638 488.252 71.5396 488.744 71.3428 489.236C71.146 489.827 70.7525 490.614 70.1622 491.597C69.5718 492.778 69.0799 493.664 68.7848 494.352C68.4896 495.041 68.4896 495.533 68.6864 495.828L69.2767 496.812L73.8025 493.959L73.1137 492.385L73.9009 491.893L76.6556 496.222L75.8686 496.714L74.8847 495.533L65.0461 501.731L65.6364 503.109L64.8493 503.601L62.1929 499.37L62.98 498.878L63.9639 500.059L68.4896 497.206L67.6041 495.828L61.0123 495.533L61.701 497.009L60.9139 497.501L58.4542 493.565L59.2413 493.073L60.2252 494.156L67.0138 494.647C66.8171 494.352 66.9154 493.664 67.2106 492.975Z" fill="#313131"/>
<path d="M67.801 483.628C67.7026 484.71 67.3091 485.694 66.6204 486.58C65.9317 487.465 64.9478 488.351 63.7672 489.039C62.4882 489.728 61.3076 490.122 60.1269 490.22C58.9463 490.318 57.864 490.023 56.8802 489.531C55.8963 489.039 55.1092 488.252 54.5189 487.17C53.535 485.497 53.3383 483.923 53.9286 482.349C54.5189 480.873 55.6995 479.594 57.5689 478.512C58.8479 477.823 60.1269 477.43 61.3075 477.331C62.4882 477.233 63.6688 477.528 64.6527 478.02C65.6365 478.512 66.4236 479.299 67.0139 480.381C67.6043 481.464 67.8994 482.546 67.801 483.628ZM58.0608 488.449C59.3398 488.547 60.8156 488.055 62.5866 487.072C64.2591 486.186 65.3414 485.104 65.9317 484.022C66.522 482.939 66.522 481.759 65.9317 480.775C65.3414 479.693 64.3575 479.201 63.0785 479.102C61.7995 479.004 60.2253 479.496 58.4543 480.48C56.7818 481.365 55.6995 482.447 55.1092 483.53C54.5189 484.612 54.5189 485.694 55.1092 486.776C55.8963 487.76 56.8802 488.351 58.0608 488.449Z" fill="#313131"/>
<path d="M50.9769 478.217L51.4689 479.693L50.6818 480.086L49.5011 477.823C49.3044 477.43 49.0092 476.938 48.7141 476.446C48.4189 475.954 48.1237 475.56 48.0253 475.265C47.2383 473.691 46.9431 472.51 47.0415 471.625C47.1399 470.739 47.7302 470.051 48.6157 469.559C49.4028 469.165 50.1898 469.067 50.9769 469.165C51.764 469.362 52.4527 469.756 53.043 470.444C52.4527 469.362 52.2559 468.476 52.4527 467.591C52.6495 466.706 53.2398 466.017 54.1253 465.623C55.2075 465.033 56.3882 464.935 57.4704 465.427C58.5527 465.82 59.6349 467.001 60.5204 468.772C60.7172 469.165 60.9139 469.559 61.0123 469.952C61.4059 470.838 61.701 471.33 61.7994 471.526L62.98 473.691L62.1929 474.085L61.3075 472.806L50.9769 478.217ZM54.0269 473.199L53.535 472.314C53.1414 471.527 52.6495 471.035 51.9608 470.838C51.3705 470.641 50.5834 470.739 49.7963 471.231C49.0092 471.625 48.5173 472.117 48.4189 472.707C48.3205 473.297 48.4189 474.085 48.9108 475.068C49.1076 475.462 49.3044 475.855 49.5995 476.249L49.7963 476.544L54.4204 474.183C54.4204 473.986 54.2237 473.691 54.0269 473.199ZM59.6349 469.264C59.0446 468.181 58.4543 467.493 57.6672 467.198C56.9785 466.902 56.1914 467.001 55.3059 467.493C54.4204 467.886 53.9285 468.476 53.8301 469.067C53.6333 469.657 53.8301 470.543 54.322 471.526C54.9124 472.609 55.3059 473.396 55.5027 473.691L60.422 471.133C60.422 470.838 60.1269 470.247 59.6349 469.264Z" fill="#313131"/>
<path d="M37.3011 452.144L38.1866 451.751L39.0721 453.128L49.6978 448.406L49.2059 446.733L50.0913 446.34L52.2558 451.161L51.3703 451.554L50.5833 450.177L39.9576 454.899L42.4172 460.409L53.1413 455.686L52.6494 454.014L53.5349 453.62L55.601 458.441L54.7155 458.835L53.9284 457.556L43.3027 462.278L43.6962 463.852L42.8108 464.246L37.3011 452.144Z" fill="#313131"/>
<path d="M47.9269 442.994C47.7302 443.978 47.1399 444.962 46.3528 445.749C45.5657 446.536 44.4834 447.225 43.106 447.717C41.7286 448.209 40.4496 448.406 39.269 448.307C38.0883 448.209 37.0061 447.815 36.1206 447.127C35.2351 446.438 34.5464 445.552 34.1529 444.47C33.4642 442.699 33.4642 441.027 34.2513 439.649C35.0384 438.272 36.4158 437.19 38.4819 436.403C39.8593 435.911 41.1383 435.714 42.3189 435.812C43.4996 435.911 44.5818 436.304 45.5657 436.993C46.4511 437.682 47.1399 438.567 47.5334 439.649C48.0253 440.928 48.1237 442.011 47.9269 442.994ZM37.5964 446.34C38.8754 446.635 40.3512 446.34 42.3189 445.651C44.0899 444.962 45.2705 444.175 46.0576 443.093C46.8447 442.109 47.0415 441.027 46.5495 439.846C46.156 438.764 45.2705 438.075 43.9915 437.78C42.7125 437.485 41.1383 437.78 39.269 438.469C37.498 439.157 36.219 439.944 35.5303 441.027C34.7432 442.011 34.6448 443.093 35.1367 444.273C35.5303 445.454 36.4158 446.143 37.5964 446.34Z" fill="#313131"/>
<path d="M38.3835 430.205C40.0561 429.909 41.4335 429.811 42.4173 430.008C42.9093 430.106 43.3028 430.303 43.598 430.5C43.8931 430.795 44.0899 431.09 44.2867 431.484C44.4834 432.074 44.5818 432.467 44.5818 432.763L43.2044 433.353C43.106 433.058 43.0077 432.664 42.8109 431.976C42.7125 431.779 42.6141 431.582 42.4173 431.484C42.2206 431.385 42.0238 431.287 41.7286 431.188C40.0561 430.795 37.0061 431.287 32.6771 432.763L31.2997 433.255L31.7916 435.321L30.9062 435.616L27.4626 425.384L28.3481 425.088L29.1352 426.663L40.1544 422.924L39.7609 421.153L40.6464 420.858L42.5157 426.269L41.6302 426.564L40.8432 424.793L29.8239 428.434L31.0046 432.074L32.5787 431.582C34.8416 430.992 36.7109 430.5 38.3835 430.205Z" fill="#313131"/>
<path d="M27.6595 421.743L27.8562 423.317L26.9707 423.612L24.3143 414.463L27.0691 413.38L27.3643 414.364L25.7901 415.348L26.9707 419.874L31.9884 418.398L31.103 415.446L29.5288 415.643L29.2336 414.659L33.3658 413.479L33.661 414.463L32.1852 415.151L32.9723 418.201L38.2851 416.627L36.6126 411.609L34.0545 411.314V410.134L37.3013 409.74L40.1545 419.677L39.269 419.972L38.6787 418.496L27.6595 421.743Z" fill="#313131"/>
<path d="M23.4287 406.789L24.3142 409.839L28.2496 409.543L28.5448 410.724L23.6255 411.61L20.8707 400.295L25.6916 398.918L25.9868 400.098L22.3465 401.673L23.0352 404.821L34.448 401.968L33.956 399.311L34.8415 399.115L36.5141 406.002L35.6286 406.198L34.8415 403.837L23.4287 406.789Z" fill="#313131"/>
<path d="M26.8723 390.948L27.0691 391.834C27.3643 392.129 27.7578 392.326 28.4465 392.522C29.0368 392.719 29.8239 392.916 30.8078 393.113C31.7916 393.31 32.4803 393.506 32.9723 393.605C33.4642 393.703 33.7593 393.9 33.7593 394.097L34.2513 396.556L33.3658 396.753L33.0707 396.064C32.9723 395.868 32.7755 395.769 32.4803 395.572C32.0868 395.474 31.5948 395.277 30.8078 394.982C29.9223 394.785 29.2336 394.49 28.6433 394.293C28.053 394.097 27.6594 393.801 27.3642 393.506C27.2659 394.392 26.9707 395.081 26.3804 395.769C25.7901 396.36 25.1014 396.753 24.1175 396.95C22.6417 397.245 21.5595 397.048 20.7724 396.261C19.9853 395.474 19.4934 394.293 19.1982 392.719C19.0998 392.326 19.0998 391.932 19.0014 391.342C18.903 390.752 18.9031 390.26 18.8047 389.964L18.3127 387.308L19.1982 387.111L19.6901 388.587L31.1029 386.324L30.9062 384.553L31.7916 384.356L32.8739 389.768L31.9884 389.964L31.4965 388.193L26.5772 389.177L26.8723 390.948ZM19.8869 391.047C19.8869 391.637 19.9853 392.129 20.0837 392.522C20.2805 393.506 20.5756 394.195 21.1659 394.589C21.7563 394.982 22.4449 395.081 23.5272 394.884C24.5111 394.687 25.1998 394.293 25.6917 393.703C26.1836 393.113 26.1836 392.326 26.0852 391.342C25.8885 390.358 25.7901 389.768 25.5933 389.374L19.9853 390.456L19.8869 391.047Z" fill="#313131"/>
<path d="M18.0176 380.421L18.6079 383.57H22.5433L22.7401 384.75L17.7224 385.242L15.9514 373.731L20.8708 372.747L21.0675 373.928L17.3289 375.108L17.7224 378.355L29.332 376.584L29.1352 373.928L30.0207 373.829L31.1029 380.913L30.2174 381.011L29.6271 378.65L18.0176 380.421Z" fill="#313131"/>
<path d="M28.0531 363.302C27.5611 364.286 26.774 365.171 25.7902 365.761C24.8063 366.352 23.5273 366.745 22.1499 366.844C20.7725 366.942 19.4934 366.844 18.4112 366.352C17.329 365.86 16.3451 365.171 15.6564 364.187C14.9677 363.203 14.5741 362.121 14.4758 360.842C14.3774 359.858 14.3774 358.678 14.5741 357.399L14.6725 356.808L18.0177 356.612L18.1161 357.891L15.7548 358.579C15.6564 358.776 15.558 359.071 15.4596 359.563C15.3612 359.957 15.3612 360.547 15.4596 361.137C15.558 361.924 15.8532 362.613 16.3451 363.203C16.837 363.794 17.5257 364.187 18.5096 364.482C19.3951 364.778 20.4773 364.778 21.7564 364.679C22.937 364.581 23.9208 364.286 24.9047 363.892C25.7902 363.499 26.5773 362.908 27.0692 362.22C27.5611 361.531 27.7579 360.744 27.6595 359.76C27.5611 359.071 27.4627 358.579 27.3643 358.284C27.266 357.989 27.0692 357.694 26.774 357.399L24.9047 356.808V355.628L27.5611 355.824C27.5611 356.12 27.7579 356.415 27.9547 356.907C28.1514 357.3 28.2498 357.792 28.4466 358.186C28.6434 358.579 28.6434 359.071 28.7417 359.76C28.7417 361.039 28.545 362.22 28.0531 363.302Z" fill="#313131"/>
<path d="M13.6887 349.232L14.5741 349.134L14.8693 350.905L24.216 350.413L21.8547 349.036L14.9677 344.018H14.4758L14.3774 345.691L13.4919 345.789L13.1967 340.673L14.0822 340.574L14.3774 342.05L25.9869 341.46L26.0853 339.886H26.9708L27.2659 345.1H26.3805L26.0853 343.428L16.5419 343.92L18.8048 345.199L25.7902 350.315H26.4789L26.5773 348.544L27.4627 348.445L27.7579 353.66L26.8724 353.758L26.5773 352.184L14.9677 352.774L14.8693 354.25L13.9838 354.349L13.6887 349.232Z" fill="#313131"/>
<path d="M12.9999 328.965L17.9192 328.768V330.047L14.1806 330.637L14.0822 334.77L25.8885 334.573L26.0853 331.326H26.9708L27.0692 338.607H26.1837L25.9869 336.541L14.3774 336.737L14.1806 338.705H13.2951L12.9999 328.965Z" fill="#313131"/>
<path d="M14.1806 325.718L13.8854 327.194H12.9999L13.1967 322.078H14.0822L14.2789 323.652L19.2966 323.849L19.4934 317.257L14.4757 317.06L14.1806 318.536H13.2951L13.4918 313.519H14.3773L14.5741 314.994L26.1837 315.388L26.3804 313.912H27.2659L27.0691 318.93H26.1837L26.0853 317.356L20.674 317.159L20.4773 323.751L25.8885 323.947L26.0853 322.373H26.9707L26.774 327.489H25.8885L25.7901 326.014L14.1806 325.718Z" fill="#313131"/>
<path d="M13.787 306.73L13.9837 304.664L27.1675 301.122L27.4626 299.941L28.3481 300.04L27.9546 304.959L27.0691 304.86L26.9707 303.286L24.1175 303.975L23.724 309.386L26.3804 310.468L26.6756 308.894L27.561 308.993L27.2659 313.42L26.3804 313.322L26.282 312.141L13.787 306.73ZM16.9353 305.844L15.2628 306.139L16.9353 306.73L22.7401 309.091L23.1337 304.369L16.9353 305.844Z" fill="#313131"/>
<path d="M23.9208 294.727C25.5934 295.218 26.8724 295.71 27.6595 296.301C28.0531 296.596 28.3482 296.989 28.545 297.285C28.7418 297.678 28.7417 298.072 28.7417 298.465C28.6434 299.056 28.545 299.449 28.4466 299.744L26.9708 299.646C27.0692 299.351 27.0692 298.859 27.1676 298.268C27.1676 298.072 27.1676 297.777 27.0692 297.678C26.9708 297.481 26.774 297.285 26.5773 297.088C25.1999 296.006 22.2483 295.12 17.7225 294.628L16.2467 294.431L15.7548 296.498L14.8693 296.399L16.1483 285.675L17.0338 285.773V287.544L28.545 288.922L28.9385 287.151L29.824 287.249L29.1353 292.956L28.2498 292.857V290.889L16.7387 289.512L16.2467 293.251L17.9193 293.448C20.2805 293.939 22.2483 294.235 23.9208 294.727Z" fill="#313131"/>
<path d="M22.74 278.69C23.0352 277.214 23.5271 276.132 24.4126 275.443C25.2981 274.754 26.2819 274.557 27.5609 274.754C28.9384 275.049 30.0206 275.64 30.6109 276.722C31.2012 277.706 31.398 278.985 31.1029 280.461C31.1029 280.657 31.0045 280.854 31.0045 281.051C30.9061 281.248 30.9061 281.444 30.8077 281.74C30.6109 282.428 30.5125 283.019 30.4141 283.609L30.0206 286.069L29.1351 285.872L29.2335 284.298L17.7223 282.232L17.2304 283.707L16.3449 283.511L17.2304 278.296L18.1159 278.493L18.0175 280.362L22.2481 281.149L22.74 278.69ZM19.3949 266.195L20.2804 266.391L20.182 268.162L31.5948 270.228L32.0867 268.556L32.9722 268.753L31.9883 274.164L31.1029 273.967L31.2012 272.196L19.7885 270.13L19.2965 271.803L18.411 271.606L19.3949 266.195ZM29.9222 281.641C30.0206 281.444 30.0206 281.051 30.119 280.657C30.3158 279.673 30.119 278.788 29.6271 278.099C29.1351 277.411 28.348 277.017 27.2658 276.82C26.2819 276.624 25.3964 276.82 24.8061 277.214C24.2158 277.706 23.8223 278.394 23.6255 279.378L23.3303 281.248L29.5287 282.33C29.7254 282.133 29.8238 281.838 29.9222 281.641Z" fill="#313131"/>
<path d="M22.4449 258.029L21.8546 259.406L20.9691 259.209L22.2482 254.29L23.1337 254.487L22.9369 256.061L27.8562 257.241L29.4304 250.846L24.5111 249.666L23.9207 251.043L23.0353 250.846L24.2159 246.025L25.1014 246.222L25.003 247.698L36.3174 250.551L36.9077 249.174L37.7932 249.371L36.6125 254.29L35.7271 254.093L35.9238 252.519L30.611 251.24L29.0368 257.635L34.3497 258.914L34.94 257.34L35.8255 257.537L34.5464 262.554L33.6609 262.357L33.8577 260.882L22.4449 258.029Z" fill="#313131"/>
<path d="M26.1836 239.434L26.7739 237.466L40.4496 236.875L40.9415 235.793L41.827 236.088L40.3512 240.811L39.4657 240.516L39.7609 238.942H36.8093L35.2351 244.156L37.5964 245.829L38.2851 244.353L39.1705 244.648L37.8915 248.879L37.0061 248.583L37.2028 247.403L26.1836 239.434ZM29.3319 239.237H27.6594L29.1352 240.122L34.3496 243.664L35.727 239.138L29.3319 239.237Z" fill="#313131"/>
<path d="M32.1852 224.872L31.2997 226.742L30.4142 226.447L32.1852 221.822L40.9415 222.314L43.4012 222.61L41.3351 221.232L34.3497 215.821L36.1206 211.197L37.0061 211.492L36.5142 213.46L47.9269 216.116L48.714 214.64L49.5995 214.935L47.6318 220.052L46.7463 219.756L47.1399 218.084L38.9738 215.919L35.4319 215.034L37.6948 216.706L45.7625 223.101L45.3689 224.282L35.9238 223.987L32.1852 223.79L35.4319 225.364L43.0076 229.005L43.7947 227.332L44.6802 227.627L43.0076 232.153L42.1222 231.858L42.5157 230.284L32.1852 224.872Z" fill="#313131"/>
<path d="M38.8754 204.605L39.6625 202.736L53.3382 203.72L53.9285 202.736L54.814 203.129L52.8462 207.655L51.9608 207.262L52.4527 205.786L49.5995 205.491L47.435 210.508L49.5995 212.378L50.3866 211L51.2721 211.394L49.5011 215.428L48.6156 215.034L48.9108 213.853L38.8754 204.605ZM42.0238 204.704L40.3512 204.507L41.7286 205.589L46.4511 209.721L48.3205 205.392L42.0238 204.704Z" fill="#313131"/>
<path d="M44.2867 195.652L43.4012 196.833L42.5157 196.439L43.598 194.176C43.7948 193.783 43.9915 193.389 44.0899 192.996C44.3851 192.405 44.5819 191.815 44.877 191.225C45.6641 189.65 46.5496 188.568 47.4351 188.175C48.3205 187.781 49.4028 187.879 50.5834 188.47C51.4689 188.863 52.1576 189.454 52.6495 190.241C53.1415 191.028 53.3382 191.815 53.3382 192.7C53.3382 193.586 53.1415 194.57 52.6495 195.455C52.4528 195.75 52.3544 196.144 52.1576 196.439C51.9608 196.734 51.8624 196.931 51.8624 197.029L55.6011 198.8L56.8801 196.636L57.6672 197.029L55.0108 202.539L54.2237 202.145L54.7156 200.67L44.2867 195.652ZM51.8624 195.062C52.256 194.176 52.3544 193.291 52.0592 192.504C51.7641 191.717 51.0754 191.028 49.7963 190.339C48.8125 189.847 48.0254 189.749 47.3367 190.044C46.648 190.339 46.156 190.929 45.5657 192.012C45.3689 192.405 45.2706 192.799 45.0738 193.192C44.9754 193.487 44.877 193.586 44.877 193.684L50.8786 196.537C51.1737 196.341 51.4689 195.849 51.8624 195.062Z" fill="#313131"/>
<path d="M61.0123 189.158C60.0284 189.749 58.9461 189.945 57.7655 189.945C56.5849 189.847 55.4043 189.552 54.1252 188.863C52.9446 188.174 51.9607 187.387 51.272 186.305C50.5833 185.321 50.2882 184.141 50.1898 182.96C50.1898 181.779 50.3866 180.599 51.0753 179.517C51.5672 178.631 52.1575 177.746 53.1414 176.663L53.5349 176.171L56.3881 177.942L55.7978 179.025L53.4365 178.336C53.2397 178.434 52.9446 178.631 52.6494 178.926C52.3543 179.221 52.0591 179.713 51.764 180.205C51.3704 180.894 51.272 181.681 51.3704 182.37C51.4688 183.157 51.8623 183.846 52.4527 184.633C53.043 185.321 53.9285 186.01 55.0107 186.6C55.9946 187.191 57.0768 187.486 58.0607 187.683C59.0445 187.879 59.93 187.781 60.7171 187.486C61.5042 187.191 62.0945 186.6 62.5864 185.813C62.8816 185.223 63.0783 184.731 63.1767 184.436C63.2751 184.141 63.2751 183.747 63.1767 183.452L61.8977 181.878L62.5864 180.894L64.7509 182.566C64.6525 182.763 64.5542 183.157 64.4558 183.747C64.3574 184.239 64.259 184.633 64.1606 185.026C64.0622 185.42 63.8655 185.912 63.5703 186.502C62.7832 187.683 61.8977 188.568 61.0123 189.158Z" fill="#313131"/>
<path d="M64.0623 157.773L64.8494 158.265L64.0623 159.938L71.9332 165.054L70.851 162.496L68.2929 154.428L67.8994 154.133L66.8171 155.412L66.03 154.92L68.8832 150.591L69.6703 151.083L69.08 152.46L78.8202 158.856L79.8041 157.675L80.5912 158.167L77.738 162.496L76.9509 162.004L77.738 160.528L69.7687 155.314L70.851 157.675L73.409 165.939L73.9993 166.333L75.0815 164.955L75.8687 165.447L73.0154 169.875L72.2284 169.383L72.9171 168.005L63.1768 161.61L62.193 162.693L61.4059 162.201L64.0623 157.773Z" fill="#313131"/>
<path d="M71.343 147.541C71.5397 147.049 71.7365 146.557 71.9333 146.164C72.13 145.77 72.3268 145.475 72.5236 145.18C73.409 143.901 74.3929 143.114 75.2784 142.72C76.1639 142.327 77.0493 142.523 77.9348 143.114C78.7219 143.704 79.2138 144.393 79.3122 145.278C79.4106 146.164 79.3122 146.951 78.9187 147.836C79.6074 146.951 80.3945 146.36 81.28 146.262C82.1654 146.065 82.9525 146.262 83.7396 146.852C84.8219 147.639 85.4122 148.623 85.5105 149.706C85.6089 150.788 85.117 152.067 84.0347 153.543C83.6412 154.133 83.1493 154.625 82.7557 155.018C82.3622 155.412 81.9686 155.707 81.6735 155.904C81.3783 156.101 81.1816 156.199 81.1816 156.297L78.7219 154.133L79.3122 153.346L81.5751 154.33C82.1654 154.035 82.8541 153.444 83.4444 152.559C83.9364 151.87 84.1331 151.181 83.9364 150.591C83.7396 149.902 83.346 149.312 82.4606 148.722C81.8702 148.23 81.1815 148.033 80.4928 148.131C79.8041 148.23 79.1154 148.722 78.4267 149.607L77.6397 150.689L76.7542 150.099L77.3445 149.214C77.6397 148.82 77.8364 148.328 77.9348 147.836C78.0332 147.344 78.0332 146.852 77.8364 146.36C77.6397 145.868 77.2461 145.475 76.7542 145.081C76.0655 144.589 75.4752 144.393 74.8849 144.589C74.2945 144.786 73.8026 145.18 73.3107 145.77C73.0155 146.262 72.8187 146.656 72.622 147.049C72.4252 147.443 72.5236 147.738 72.622 147.935L73.8026 149.214L73.1139 150.197L70.6542 148.623C70.851 148.427 71.0478 148.033 71.343 147.541Z" fill="#313131"/>
<path d="M81.6734 135.144L80.4927 136.227L79.804 135.636L81.3782 133.669C81.6734 133.373 81.9685 132.882 82.3621 132.39C82.6572 131.898 82.9524 131.504 83.1492 131.307C84.2314 129.93 85.2153 129.143 86.1008 128.946C86.9862 128.749 87.8717 128.946 88.6588 129.536C89.3475 130.127 89.741 130.815 89.9378 131.603C90.1346 132.39 89.9378 133.177 89.5443 133.964C90.233 132.98 91.1184 132.488 92.0039 132.291C92.8894 132.094 93.7749 132.39 94.4636 132.98C95.4474 133.767 95.9394 134.751 96.0378 135.932C96.1361 137.112 95.4474 138.49 94.1684 140.162C93.8732 140.556 93.5781 140.851 93.2829 141.146C92.5942 141.835 92.2991 142.327 92.1023 142.425L90.5281 144.393L89.8394 143.802L90.6265 142.523L81.6734 135.144ZM87.4781 135.932L88.1669 135.144C88.7572 134.456 88.9539 133.767 88.8555 133.177C88.7572 132.586 88.3636 131.898 87.6749 131.307C86.9862 130.717 86.3959 130.52 85.8056 130.619C85.2153 130.717 84.5266 131.209 83.9362 131.996C83.6411 132.39 83.3459 132.685 83.1492 133.078L82.9524 133.373L86.9862 136.62C86.8878 136.62 87.183 136.325 87.4781 135.932ZM93.3813 139.473C94.1684 138.49 94.562 137.604 94.4636 136.817C94.3652 136.03 93.9716 135.341 93.2829 134.751C92.4958 134.161 91.8071 133.865 91.2168 133.964C90.5281 134.062 89.9378 134.554 89.2491 135.44C88.462 136.423 87.9701 137.014 87.7733 137.309L92.1023 140.851C92.2991 140.752 92.6926 140.261 93.3813 139.473Z" fill="#313131"/>
<path d="M91.1186 121.862L92.496 120.288L105.188 125.404L106.073 124.617L106.762 125.207L103.515 128.946L102.826 128.356L103.712 127.077L101.056 125.896L97.4153 130.028L98.8911 132.488L100.072 131.406L100.76 131.996L97.8088 135.341L97.1201 134.751L97.7104 133.767L91.1186 121.862ZM94.1685 122.945L92.5944 122.256L93.5782 123.732L96.8249 129.143L99.9733 125.601L94.1685 122.945Z" fill="#313131"/>
<path d="M108.434 122.452C107.352 122.748 106.27 122.649 105.089 122.354C104.007 121.961 102.925 121.272 101.843 120.288C100.859 119.304 100.17 118.222 99.7765 117.14C99.383 116.057 99.3829 114.778 99.6781 113.696C99.9733 112.515 100.564 111.532 101.449 110.548C102.138 109.859 103.023 109.17 104.204 108.383L104.696 107.99L106.959 110.449L106.073 111.335L104.007 110.056C103.81 110.056 103.515 110.253 103.122 110.449C102.728 110.646 102.335 111.04 101.941 111.433C101.351 112.024 101.056 112.712 100.957 113.401C100.859 114.188 100.957 114.975 101.351 115.861C101.744 116.746 102.433 117.632 103.318 118.419C104.204 119.206 105.089 119.894 105.975 120.288C106.86 120.682 107.746 120.878 108.631 120.878C109.517 120.878 110.205 120.485 110.894 119.796C111.386 119.304 111.681 118.911 111.78 118.615C111.976 118.32 112.075 117.927 112.075 117.632L111.288 115.762L112.173 114.975L113.747 117.14C113.551 117.336 113.354 117.632 113.157 118.124C112.96 118.517 112.763 118.911 112.468 119.304C112.272 119.698 111.878 120.091 111.484 120.485C110.599 121.567 109.517 122.157 108.434 122.452Z" fill="#313131"/>
<path d="M113.255 102.775C113.059 101.693 113.059 100.611 113.354 99.6271C113.649 98.6433 114.141 97.8562 114.928 97.0691C115.813 96.1836 116.797 95.6917 117.781 95.4949C118.765 95.2981 119.847 95.3965 120.831 95.8885C121.815 96.3804 122.799 97.0691 123.783 97.9546C124.865 99.0368 125.554 100.217 125.947 101.398C126.341 102.579 126.439 103.661 126.144 104.743C125.849 105.825 125.357 106.711 124.57 107.498C123.684 108.384 122.7 108.875 121.618 109.072C120.634 109.269 119.552 109.171 118.568 108.777C117.584 108.383 116.502 107.695 115.617 106.711L113.452 108.777L117.191 112.712L118.47 111.729L119.06 112.417L115.321 115.959L114.731 115.271L115.715 114.09L107.746 105.629L106.467 106.514L105.778 105.825L109.418 102.382L110.107 103.071L109.123 104.251L112.567 107.892L114.829 105.825C114.042 104.94 113.55 103.956 113.255 102.775ZM114.633 101.103C114.829 102.382 115.617 103.759 117.092 105.235C118.371 106.514 119.552 107.4 120.831 107.695C122.11 107.99 123.094 107.793 124.078 106.908C124.963 106.121 125.258 105.038 124.963 103.858C124.668 102.677 123.881 101.3 122.504 99.8239C121.225 98.5449 120.044 97.6594 118.863 97.3643C117.683 97.0691 116.6 97.2659 115.715 98.053C114.829 98.84 114.436 99.8239 114.633 101.103Z" fill="#313131"/>
<path d="M132.047 92.8386C132.834 93.0354 133.818 93.3306 135.097 93.6257C135.982 93.9209 136.573 94.1177 137.065 94.2161C137.557 94.3144 137.753 94.3144 137.95 94.2161L138.639 93.9209L139.229 94.6096L137.458 96.0854C137.262 96.2822 136.868 96.2822 136.278 96.1838C135.687 96.0854 134.9 95.7902 133.818 95.3967C132.637 94.9048 131.654 94.6096 130.965 94.4128C130.276 94.2161 129.784 94.3144 129.489 94.5112L128.604 95.2983L132.047 99.3321L133.424 98.4466L134.015 99.1354L130.079 102.48L129.489 101.792L130.571 100.71L123.094 91.8548L121.815 92.6419L121.225 91.9532L125.062 88.7064L125.652 89.3951L124.57 90.5758L128.013 94.708L129.194 93.6257L128.604 87.0339L127.226 87.9193L126.636 87.2306L130.178 84.2791L130.768 84.9678L129.784 86.05L130.178 92.8386C130.571 92.7403 131.26 92.7403 132.047 92.8386Z" fill="#313131"/>
<path d="M141.394 92.15C140.311 92.2483 139.328 91.9532 138.344 91.3629C137.36 90.7725 136.376 89.9855 135.49 88.8048C134.605 87.6242 134.015 86.542 133.818 85.3613C133.621 84.1807 133.621 83.0984 134.015 82.0162C134.408 80.9339 135.097 80.0485 135.982 79.3598C137.557 78.1791 139.032 77.7856 140.607 78.0807C142.181 78.3759 143.657 79.4582 144.936 81.1307C145.821 82.3113 146.411 83.492 146.608 84.6726C146.805 85.8532 146.805 87.0339 146.411 88.1161C146.018 89.1984 145.329 90.0839 144.444 90.7726C143.46 91.658 142.476 92.0516 141.394 92.15ZM135.294 83.2952C135.392 84.5742 136.081 85.9516 137.261 87.6242C138.442 89.1 139.623 90.0839 140.803 90.4774C141.984 90.9693 143.066 90.7726 144.05 89.9855C145.034 89.2968 145.427 88.2145 145.329 86.9355C145.231 85.6565 144.542 84.1807 143.263 82.6065C142.082 81.1307 140.902 80.1468 139.721 79.7533C138.54 79.3598 137.458 79.4581 136.474 80.2452C135.589 81.0323 135.195 82.0162 135.294 83.2952Z" fill="#313131"/>
<path d="M144.345 74.7352L142.968 75.4239L142.476 74.6368L144.542 73.161C144.936 72.9643 145.329 72.5707 145.821 72.1772C146.313 71.7836 146.608 71.4885 146.903 71.3901C148.281 70.4062 149.461 69.9143 150.347 69.9143C151.232 69.9143 152.019 70.3078 152.61 71.1933C153.102 71.882 153.397 72.6691 153.298 73.4562C153.2 74.2433 152.905 75.0304 152.315 75.6207C153.298 74.932 154.184 74.6368 155.069 74.6368C155.955 74.6368 156.742 75.1288 157.332 76.0142C158.021 76.9981 158.316 78.1787 158.021 79.261C157.726 80.4416 156.742 81.6222 155.069 82.8029C154.676 83.098 154.381 83.2948 153.987 83.4916C153.2 83.9835 152.708 84.3771 152.511 84.4754L150.445 85.9512L149.953 85.2625L151.134 84.1803L144.345 74.7352ZM149.757 77.0965L150.642 76.5062C151.331 76.0142 151.724 75.4239 151.823 74.7352C151.921 74.0465 151.724 73.3578 151.134 72.6691C150.642 71.9804 150.052 71.5869 149.461 71.4885C148.871 71.3901 148.084 71.6853 147.199 72.2756C146.805 72.5707 146.51 72.8659 146.116 73.161L145.821 73.4562L148.871 77.6868C148.969 77.5884 149.265 77.3916 149.757 77.0965ZM154.381 82.1142C155.365 81.4255 155.955 80.6384 156.152 79.8513C156.348 79.0642 156.152 78.3755 155.561 77.49C154.971 76.7029 154.381 76.3094 153.79 76.211C153.102 76.1126 152.315 76.4078 151.429 77.0965C150.347 77.7852 149.757 78.2771 149.461 78.4739L152.708 82.9997C153.003 83.098 153.594 82.7045 154.381 82.1142Z" fill="#313131"/>
<path d="M168.253 57.6162L168.745 58.4033L167.564 59.4855L173.664 69.3242L175.239 68.5371L175.73 69.3242L171.303 72.079L170.811 71.2919L171.992 70.308L165.793 60.371L160.677 63.5194L166.876 73.4564L168.45 72.6693L168.942 73.4564L164.514 76.2112L164.023 75.4241L165.203 74.4402L159.103 64.6016L157.627 65.2903L157.135 64.5032L168.253 57.6162Z" fill="#313131"/>
<path d="M178.78 66.7663C177.698 66.6679 176.714 66.2743 175.829 65.5856C174.943 64.8969 174.156 63.9131 173.468 62.634C172.779 61.355 172.385 60.1744 172.287 58.8954C172.189 57.7147 172.484 56.6325 172.976 55.6486C173.468 54.6648 174.255 53.8777 175.337 53.2874C177.009 52.3035 178.584 52.1067 180.158 52.697C181.634 53.2874 182.913 54.468 183.995 56.4357C184.684 57.7147 185.077 58.9938 185.176 60.1744C185.274 61.4534 184.979 62.5357 184.388 63.5195C183.798 64.5034 183.011 65.2905 182.027 65.8808C180.847 66.5695 179.863 66.8646 178.78 66.7663ZM173.96 57.026C173.861 58.3051 174.353 59.7808 175.337 61.5518C176.222 63.2244 177.305 64.3066 178.387 64.8969C179.469 65.4872 180.65 65.4872 181.634 64.8969C182.716 64.3066 183.208 63.4211 183.306 62.0437C183.405 60.7647 182.913 59.1905 181.929 57.4196C181.043 55.747 179.961 54.6648 178.879 54.0745C177.797 53.4841 176.714 53.4841 175.632 54.0745C174.648 54.8615 174.058 55.8454 173.96 57.026Z" fill="#313131"/>
<path d="M190.193 55.5502C190.784 57.2228 190.98 58.5018 190.882 59.5841C190.882 60.076 190.685 60.5679 190.488 60.8631C190.292 61.1582 189.997 61.4534 189.603 61.6502C189.111 61.9453 188.619 62.0437 188.422 62.1421L187.635 60.8631C187.93 60.7647 188.324 60.5679 188.914 60.2728C189.111 60.1744 189.308 60.076 189.406 59.8792C189.505 59.6825 189.603 59.4857 189.603 59.1905C189.8 57.4196 188.816 54.5664 186.75 50.4342L186.061 49.1551L183.995 49.9422L183.601 49.1551L193.243 44.3342L193.637 45.1213L192.161 46.1052L197.375 56.5341L199.146 55.8454L199.54 56.6325L194.424 59.1905L194.03 58.4034L195.703 57.3212L190.488 46.8923L187.143 48.5648L187.93 50.0406C188.816 52.1067 189.603 53.9761 190.193 55.5502Z" fill="#313131"/>
<path d="M196.982 43.744L195.506 44.1376L195.113 43.2521L203.771 39.3167L205.246 41.8747L204.262 42.2682L202.983 40.7924L198.753 42.5634L200.917 47.3843L203.771 46.0069L203.377 44.5311L204.361 44.1376L206.132 48.073L205.148 48.4666L204.262 47.0891L201.409 48.3682L203.672 53.4842L208.395 51.123L208.296 48.5649L209.477 48.4666L210.362 51.6149L200.917 55.8455L200.524 55.0584L201.901 54.2713L196.982 43.744Z" fill="#313131"/>
<path d="M211.248 37.4472L208.296 38.7262L209.182 42.5632L208.001 43.0552L206.427 38.3327L217.249 34.0037L219.316 38.5294L218.233 38.923L216.167 35.4795L213.117 36.5617L217.545 47.4826L220.103 46.6955L220.398 47.5809L213.806 50.2374L213.511 49.3519L215.675 48.2696L211.248 37.4472Z" fill="#313131"/>
<path d="M227.383 38.6277L226.498 38.9228C226.301 39.218 226.104 39.7099 226.006 40.3003C225.907 40.989 225.809 41.776 225.809 42.7599C225.711 43.7438 225.711 44.4325 225.612 44.9244C225.514 45.4163 225.415 45.7115 225.219 45.8099L222.857 46.6954L222.562 45.8099L223.153 45.4163C223.349 45.3179 223.448 45.1212 223.546 44.7276C223.644 44.3341 223.743 43.7438 223.841 42.9567C223.94 42.0712 224.136 41.2841 224.235 40.6938C224.432 40.1035 224.628 39.6116 224.924 39.3164C224.038 39.4148 223.251 39.218 222.562 38.7261C221.874 38.2341 221.382 37.5454 221.086 36.66C220.595 35.2826 220.693 34.1019 221.283 33.3148C221.972 32.4294 223.054 31.7407 224.628 31.2487C224.924 31.1503 225.415 30.9536 226.006 30.8552C226.596 30.6584 226.99 30.56 227.285 30.4616L229.843 29.5762L230.138 30.4616L228.761 31.1503L232.598 41.9728L234.27 41.5793L234.565 42.4647L229.351 44.3341L229.056 43.4486L230.728 42.6615L229.056 37.939L227.383 38.6277ZM226.301 31.6423C225.711 31.7407 225.317 31.9374 224.825 32.0358C223.94 32.331 223.251 32.8229 222.956 33.3148C222.562 33.9052 222.562 34.6922 222.956 35.6761C223.251 36.66 223.841 37.2503 224.432 37.6438C225.12 37.939 225.907 37.939 226.793 37.6438C227.777 37.3487 228.367 37.0535 228.662 36.9551L226.793 31.5439L226.301 31.6423Z" fill="#313131"/>
<path d="M236.533 28.3957L233.483 29.4779L233.975 33.4134L232.794 33.8069L231.614 28.8876L242.731 25.4441L244.404 30.1666L243.322 30.4618L241.551 26.9199L238.402 27.8054L241.846 39.1198L244.404 38.5294L244.699 39.4149L237.911 41.481L237.615 40.5956L239.878 39.7101L236.533 28.3957Z" fill="#313131"/>
<path d="M254.931 35.8732C253.849 35.4796 252.964 34.8893 252.177 34.0038C251.389 33.1184 250.898 31.9377 250.504 30.5603C250.209 29.1829 250.209 27.9039 250.504 26.7233C250.799 25.5426 251.389 24.5588 252.275 23.7717C253.16 22.9846 254.144 22.3943 255.423 22.0991C256.309 21.9023 257.489 21.7056 258.867 21.7056H259.457L260.047 25.0507L258.867 25.3458L257.883 23.1814C257.686 23.083 257.391 22.9846 256.899 22.9846C256.407 22.9846 255.915 23.083 255.325 23.1814C254.538 23.3781 253.947 23.7717 253.456 24.362C252.964 24.9523 252.668 25.7394 252.472 26.6249C252.373 27.6087 252.373 28.5926 252.668 29.8716C252.964 31.0522 253.357 32.0361 253.849 32.8232C254.341 33.6103 255.03 34.299 255.817 34.6925C256.604 35.0861 257.391 35.1845 258.276 34.9877C258.965 34.7909 259.359 34.6925 259.752 34.4958C260.047 34.299 260.343 34.1022 260.539 33.8071L260.835 31.8393L262.015 31.7409L262.212 34.3974C261.917 34.4958 261.622 34.6925 261.13 34.8893C260.736 35.0861 260.343 35.3812 259.949 35.4796C259.555 35.6764 259.064 35.7748 258.473 35.9715C257.194 36.2667 256.014 36.2667 254.931 35.8732Z" fill="#313131"/>
<path d="M266.738 19.6394L266.934 20.5248L265.163 21.1152L266.934 30.3634L268.017 27.8054L272.05 20.3281L271.952 19.8361L270.279 19.9345L270.083 19.049L275.1 18.0652L275.297 18.9507L273.92 19.4426L276.183 30.8554L277.757 30.757L277.954 31.6425L272.838 32.6263L272.641 31.7409L274.215 31.2489L272.346 21.9022L271.362 24.2635L267.229 31.8392L267.328 32.5279L269.099 32.3312L269.296 33.2166L264.081 34.2005L263.884 33.315L265.36 32.8231L263.097 21.4103L261.621 21.5087L261.425 20.6232L266.738 19.6394Z" fill="#313131"/>
<path d="M286.808 16.1956L287.694 21.0165L286.415 21.2132L285.333 17.573L281.2 18.0649L282.971 29.7728L286.218 29.4777L286.316 30.3631L279.036 31.4454L278.937 30.5599L280.905 30.068L279.134 18.6552H277.166L277.068 17.7697L286.808 16.1956Z" fill="#313131"/>
<path d="M290.252 16.8845L288.776 16.7861L288.678 15.9006L293.695 15.3103L293.794 16.1958L292.219 16.5893L292.81 21.607L299.303 20.9183L298.713 15.9006L297.139 15.8022L297.04 14.9167L302.058 14.3264L302.157 15.2119L300.681 15.6054L301.96 27.1166H303.436L303.534 28.0021L298.516 28.5924L298.418 27.7069L299.894 27.3134L299.303 21.9021L292.81 22.5908L293.4 28.0021H295.073L295.171 28.8876L290.055 29.4779L289.957 28.5924L291.432 28.1989L290.252 16.8845Z" fill="#313131"/>
<path d="M308.945 13.9329L311.011 13.8345L316.324 26.4279L317.505 26.5263L317.603 27.4117L312.684 27.7069L312.585 26.8214L314.16 26.5263L313.077 23.7715L307.666 24.0666L306.977 26.9198L308.552 27.0182L308.65 27.9037L304.223 28.1988L304.124 27.3134L305.305 27.0182L308.945 13.9329ZM310.323 16.7861L309.732 15.2119L309.437 16.8844L307.961 22.9844L312.684 22.6892L310.323 16.7861Z" fill="#313131"/>
<path d="M322.227 22.1973C322.031 23.8698 321.637 25.2472 321.145 26.1327C320.85 26.6247 320.555 26.9198 320.26 27.1166C319.964 27.3134 319.571 27.4117 319.079 27.4117C318.489 27.4117 317.997 27.4117 317.702 27.3134L317.505 25.8376C317.8 25.8376 318.292 25.8376 318.882 25.8376C319.079 25.8376 319.276 25.7392 319.472 25.6408C319.669 25.5424 319.768 25.3456 319.964 25.0505C320.85 23.5747 321.342 20.5247 321.243 15.9006V14.4248H319.177V13.4409L330 13.2441V14.228L328.229 14.5232L328.426 26.1327L330.295 26.3295V27.215L324.49 27.3134V26.4279L326.458 26.2311L326.261 14.6215L322.424 14.7199V16.3925C322.522 18.4586 322.424 20.5247 322.227 22.1973Z" fill="#313131"/>
<path d="M337.969 18.8521C339.445 18.9505 340.625 19.3441 341.413 20.0328C342.2 20.7215 342.593 21.8037 342.495 23.0828C342.396 24.5585 341.905 25.6408 341.019 26.3295C340.035 27.1166 338.855 27.4117 337.379 27.4117C337.182 27.4117 336.985 27.4117 336.788 27.4117C336.592 27.4117 336.395 27.4117 336.1 27.3134C335.411 27.215 334.722 27.215 334.132 27.1166L331.574 27.0182V26.1327L333.148 26.0343L333.542 14.4248L332.066 14.1296V13.2441L337.379 13.4409V14.3264L335.509 14.5232L335.313 18.8521H337.969ZM336.001 26.3295C336.198 26.3295 336.592 26.4279 336.985 26.4279C338.067 26.4279 338.855 26.2311 339.445 25.6408C340.035 25.0505 340.33 24.2634 340.33 23.1811C340.33 22.0989 340.134 21.4102 339.543 20.8199C339.051 20.3279 338.264 20.0328 337.182 19.9344H335.313L335.116 26.2311C335.509 26.2311 335.805 26.3295 336.001 26.3295ZM349.874 13.8345V14.7199L348.103 14.9167L347.709 26.5263L349.48 26.8214V27.7069L343.971 27.5101V26.6247L345.742 26.5263L346.135 14.9167L344.364 14.6215V13.7361L349.874 13.8345Z" fill="#313131"/>
<path d="M358.335 15.7038L356.859 15.3103L356.958 14.4248L361.975 14.9167L361.877 15.8022L360.303 15.9006L359.811 20.9183L366.403 21.607L366.895 16.5893L365.419 16.1958L365.517 15.3103L370.535 15.8022L370.437 16.6877L368.961 16.7861L367.78 28.3956L369.256 28.6908L369.158 29.5763L364.14 29.0843L364.238 28.1989H365.812L366.403 22.7876L359.811 22.0989L359.221 27.5102L360.795 27.9037L360.696 28.7892L355.58 28.1989L355.679 27.3134H357.253L358.335 15.7038Z" fill="#313131"/>
<path d="M377.225 16.6877L379.291 16.9829L381.849 30.4618L382.932 30.8553L382.833 31.7408L377.914 30.9537L378.012 30.0683L379.586 30.1666L379.193 27.2151L373.782 26.428L372.503 28.986L374.077 29.3795L373.978 30.265L369.551 29.5763L369.649 28.6908H370.83L377.225 16.6877ZM378.012 19.8361L377.815 18.1635L377.127 19.7377L374.372 25.3457L379.094 26.0344L378.012 19.8361Z" fill="#313131"/>
<path d="M392.475 20.6233L390.507 19.9345L390.704 19.0491L395.525 20.1313L396.312 28.8877L396.41 31.3473L397.493 29.1828L401.822 21.5087L406.643 22.591L406.446 23.4764L404.38 23.2797L403.298 34.8892L404.872 35.4796L404.675 36.365L399.46 35.1844L399.657 34.2989L401.33 34.4957L402.314 26.1329L402.707 22.4926L401.33 24.9522L396.214 33.807L395.033 33.5118L394.049 24.0668L393.754 20.4265L392.672 23.87L390.114 31.9377L391.885 32.528L391.688 33.4134L386.965 32.3312L387.162 31.4457L388.736 31.6425L392.475 20.6233Z" fill="#313131"/>
<path d="M413.53 24.3618L415.497 24.9521L416.481 38.6278L417.563 39.0213L417.367 39.9068L412.644 38.6278L412.841 37.7423L414.415 37.9391L414.317 35.0859L409.102 33.6101L407.528 36.0698L409.004 36.6601L408.807 37.5456L404.576 36.3649L404.773 35.4794L405.954 35.5778L413.53 24.3618ZM413.923 27.5102V25.8376L413.038 27.3134L409.594 32.6262L414.218 33.9053L413.923 27.5102Z" fill="#313131"/>
<path d="M423.171 28.3955L421.892 27.7068L422.188 26.8213L424.549 27.6084C424.942 27.7068 425.434 27.9035 425.828 28.0019C426.517 28.1987 427.107 28.2971 427.697 28.4939C429.37 29.0842 430.55 29.7729 431.042 30.6583C431.534 31.5438 431.633 32.6261 431.239 33.8067C430.944 34.7906 430.452 35.4793 429.763 36.0696C429.075 36.6599 428.287 36.9551 427.402 37.0534C426.517 37.1518 425.533 37.0534 424.549 36.7583C424.155 36.6599 423.86 36.5615 423.467 36.3647C423.073 36.2664 422.876 36.168 422.778 36.0696L421.499 40.005L423.86 40.9889L423.565 41.8744L417.76 40.005L418.055 39.1196L419.629 39.4147L423.171 28.3955ZM424.844 35.8728C425.828 36.168 426.615 36.168 427.402 35.7744C428.189 35.3809 428.779 34.5938 429.173 33.2164C429.468 32.2325 429.468 31.347 429.075 30.7567C428.681 30.1664 427.992 29.6745 426.91 29.2809C426.517 29.1826 426.123 29.0842 425.631 28.9858C425.336 28.8874 425.139 28.8874 425.139 28.8874L423.073 35.1841C423.467 35.3809 423.959 35.5777 424.844 35.8728Z" fill="#313131"/>
<path d="M431.928 44.0388C431.239 43.1533 430.846 42.0711 430.747 40.9888C430.649 39.9066 430.846 38.5292 431.338 37.1518C431.829 35.8728 432.518 34.7905 433.404 34.0034C434.289 33.2163 435.371 32.7244 436.552 32.5276C437.733 32.3309 438.913 32.4292 440.094 32.9212C440.979 33.2163 442.062 33.8067 443.144 34.4954L443.734 34.7905L442.357 37.8405L441.176 37.4469L441.57 35.0857C441.471 34.8889 441.176 34.6921 440.881 34.397C440.586 34.1018 439.996 33.905 439.405 33.7083C438.618 33.4131 437.929 33.4131 437.142 33.6099C436.355 33.8067 435.667 34.2986 435.076 34.9873C434.486 35.676 433.896 36.6598 433.502 37.7421C433.109 38.8243 432.912 39.9066 432.813 40.8904C432.813 41.8743 432.912 42.7598 433.404 43.5469C433.896 44.334 434.486 44.8259 435.371 45.121C435.962 45.3178 436.454 45.5146 436.847 45.5146C437.241 45.5146 437.536 45.5146 437.831 45.4162L439.208 43.9404L440.291 44.5307L438.913 46.892C438.618 46.7936 438.225 46.7936 437.733 46.6952C437.241 46.6952 436.847 46.5968 436.355 46.5968C435.962 46.4985 435.47 46.4001 434.879 46.2033C433.699 45.613 432.617 44.9243 431.928 44.0388Z" fill="#313131"/>
<path d="M459.279 40.7922L458.886 41.6777L457.115 41.0873L453.278 49.6469L455.639 48.1711L463.215 44.4325L463.411 43.9405L462.034 43.0551L462.427 42.1696L467.15 44.3341L466.757 45.2196L465.281 44.826L460.46 55.4517L461.837 56.2388L461.444 57.0259L456.721 54.8614L457.115 54.0743L458.689 54.5662L462.624 45.9083L460.46 47.2857L452.687 51.1227L452.392 51.713L453.868 52.5985L453.474 53.3856L448.653 51.2211L449.047 50.434L450.523 50.9259L455.344 40.3003L454.065 39.5132L454.458 38.6277L459.279 40.7922Z" fill="#313131"/>
<path d="M470.594 46.4001C471.184 46.4985 471.577 46.6953 471.971 46.7937C472.364 46.8921 472.758 47.0888 473.053 47.1872C474.431 47.8759 475.414 48.663 475.906 49.5485C476.398 50.434 476.398 51.3194 475.906 52.2049C475.414 53.0904 474.824 53.6807 473.939 53.8775C473.152 54.1726 472.266 54.1726 471.381 53.8775C472.365 54.4678 473.053 55.1565 473.348 55.9436C473.644 56.7307 473.545 57.6161 473.152 58.4032C472.561 59.5839 471.676 60.371 470.594 60.5677C469.511 60.8629 468.232 60.5677 466.56 59.7806C465.871 59.4855 465.379 59.0919 464.887 58.6984C464.395 58.3048 464.1 58.0097 463.805 57.8129C463.608 57.6161 463.411 57.4194 463.313 57.321L465.084 54.5662L465.871 54.9597L465.281 57.321C465.674 57.9113 466.363 58.4032 467.248 58.8952C468.036 59.2887 468.626 59.3871 469.315 59.0919C469.905 58.7968 470.495 58.3048 470.889 57.4194C471.282 56.7307 471.282 56.042 471.184 55.3533C471.085 54.6646 470.397 54.0742 469.413 53.5823L468.232 52.992L468.724 52.1065L469.708 52.5985C470.2 52.7952 470.692 52.992 471.184 52.992C471.676 52.992 472.168 52.8936 472.66 52.5985C473.152 52.3033 473.447 51.9098 473.742 51.3194C474.135 50.5323 474.234 49.942 473.939 49.3517C473.742 48.7614 473.25 48.3678 472.463 47.9743C471.971 47.6791 471.577 47.5808 471.086 47.4824C470.692 47.384 470.397 47.4824 470.2 47.5808L469.118 48.9582L468.036 48.4662L469.216 45.8098C469.61 46.105 470.003 46.2034 470.594 46.4001Z" fill="#313131"/>
<path d="M484.368 54.7631L483.187 53.7793L483.679 52.9922L485.843 54.2712C486.237 54.468 486.729 54.7631 487.319 55.0583C487.91 55.3535 488.303 55.5502 488.5 55.6486C489.976 56.5341 490.959 57.3212 491.255 58.2067C491.648 58.9937 491.55 59.8792 491.058 60.7647C490.566 61.5518 489.976 62.0437 489.287 62.3389C488.598 62.634 487.713 62.634 486.827 62.3389C487.91 62.9292 488.598 63.6179 488.893 64.5034C489.189 65.3888 489.09 66.1759 488.598 67.0614C488.008 68.1436 487.024 68.8324 485.942 69.0291C484.761 69.2259 483.285 68.8324 481.514 67.8485C481.121 67.6517 480.727 67.3566 480.432 67.1598C479.645 66.6679 479.153 66.3727 478.956 66.2743L476.792 64.9953L477.284 64.2082L478.76 64.7985L484.368 54.7631ZM481.908 66.963C482.99 67.5533 483.876 67.8485 484.663 67.6517C485.45 67.4549 486.04 66.963 486.532 66.1759C487.024 65.3888 487.122 64.6018 486.926 64.0114C486.729 63.4211 486.139 62.8308 485.155 62.2405C484.072 61.6502 483.384 61.2566 483.089 61.0599L480.334 65.8808C480.432 66.0775 481.022 66.3727 481.908 66.963ZM484.564 60.5679L485.45 61.0599C486.237 61.4534 486.926 61.6502 487.516 61.4534C488.106 61.2566 488.697 60.7647 489.09 59.9776C489.484 59.1905 489.68 58.6002 489.484 58.0099C489.287 57.4196 488.697 56.8292 487.811 56.3373C487.418 56.1405 487.024 55.9438 486.532 55.747L486.139 55.5502L483.58 60.076C483.777 60.076 484.072 60.2728 484.564 60.5679Z" fill="#313131"/>
<path d="M499.027 61.9451L500.798 63.0273L497.748 76.3094L498.634 77.0965L498.142 77.8836L494.009 75.2272L494.501 74.4401L495.879 75.1288L496.666 72.2756L492.042 69.324L489.779 71.1934L491.058 72.1772L490.566 72.9643L486.827 70.603L487.319 69.816L488.401 70.3079L499.027 61.9451ZM498.338 65.0934L498.83 63.4209L497.551 64.6015L492.73 68.6353L496.764 71.1934L498.338 65.0934Z" fill="#313131"/>
<path d="M500.995 79.1628C500.503 78.0806 500.405 76.9983 500.601 75.8177C500.798 74.6371 501.29 73.4564 502.176 72.2758C502.963 71.0952 503.947 70.3081 505.029 69.7177C506.111 69.1274 507.292 68.9307 508.472 69.029C509.653 69.1274 510.735 69.521 511.817 70.3081C512.605 70.8984 513.49 71.6855 514.375 72.6693L514.769 73.1613L512.703 75.8177L511.719 75.129L512.703 72.8661C512.605 72.6693 512.506 72.3742 512.211 72.079C511.916 71.7839 511.522 71.3903 511.03 71.0951C510.342 70.6032 509.653 70.4064 508.866 70.4064C508.079 70.4064 507.292 70.7016 506.505 71.1935C505.718 71.6855 504.93 72.4726 504.242 73.4564C503.553 74.4403 503.061 75.4241 502.766 76.3096C502.471 77.2935 502.471 78.179 502.668 78.966C502.864 79.7531 503.356 80.4418 504.143 81.0321C504.734 81.4257 505.127 81.6225 505.521 81.7208C505.914 81.8192 506.209 81.9176 506.505 81.8192L508.177 80.737L509.063 81.5241L507.193 83.4918C506.996 83.3934 506.603 83.1966 506.111 82.9999C505.619 82.9015 505.226 82.7047 504.832 82.5079C504.438 82.3112 503.947 82.1144 503.455 81.7208C502.274 81.1305 501.487 80.2451 500.995 79.1628Z" fill="#313131"/>
<path d="M521.164 80.9337C522.246 80.5401 523.23 80.4417 524.214 80.5401C525.198 80.6385 526.182 81.1304 526.969 81.7207C527.953 82.5078 528.543 83.2949 528.937 84.2788C529.232 85.2626 529.33 86.2465 529.035 87.3288C528.74 88.411 528.248 89.4932 527.362 90.5755C526.477 91.7561 525.395 92.6416 524.312 93.2319C523.23 93.8222 522.148 94.019 520.967 93.9206C519.787 93.8222 518.901 93.4287 518.016 92.74C517.032 91.9529 516.343 91.0674 515.95 90.0836C515.556 89.0997 515.556 88.1158 515.753 87.0336C516.048 85.9514 516.54 84.8691 517.327 83.7869L514.966 81.9175L511.621 86.2465L512.801 87.4271L512.211 88.1158L508.177 84.9675L508.767 84.2788L510.145 85.0659L517.229 75.916L516.146 74.8337L516.737 74.0466L520.672 77.0966L520.082 77.8837L518.704 77.0966L515.654 81.032L518.016 82.9014C519.196 82.0159 520.18 81.4256 521.164 80.9337ZM523.132 82.0159C521.951 82.4094 520.672 83.3933 519.393 85.0659C518.311 86.5417 517.622 87.8207 517.524 89.0997C517.425 90.3787 517.819 91.3626 518.803 92.1497C519.787 92.8384 520.77 93.0351 521.951 92.5432C523.132 92.1497 524.312 91.0674 525.591 89.4933C526.674 88.0175 527.362 86.7384 527.461 85.4594C527.559 84.1804 527.166 83.1965 526.28 82.5078C525.395 81.8191 524.312 81.6224 523.132 82.0159Z" fill="#313131"/>
<path d="M533.954 97.9545C533.954 98.7416 533.757 99.8239 533.561 101.103C533.364 101.988 533.364 102.677 533.265 103.071C533.265 103.464 533.266 103.858 533.364 103.956L533.757 104.546L533.167 105.235L531.396 103.759C531.199 103.563 531.101 103.169 531.199 102.579C531.298 101.988 531.396 101.103 531.593 100.021C531.888 98.7416 531.987 97.7578 532.085 97.0691C532.183 96.3804 531.986 95.8884 531.79 95.5933L530.904 94.8062L527.461 98.84L528.543 100.119L527.953 100.808L524.116 97.4626L524.706 96.7739L525.985 97.6594L533.561 88.903L532.577 87.7224L533.167 87.0337L536.906 90.2804L536.315 90.9691L535.036 90.0837L531.495 94.1175L532.675 95.1997L539.07 93.6256L537.988 92.4449L538.578 91.7562L542.022 94.8062L541.432 95.4949L540.153 94.7078L533.561 96.1836C533.856 96.5771 533.954 97.1674 533.954 97.9545Z" fill="#313131"/>
<path d="M536.02 107.104C535.824 106.12 535.824 105.038 536.315 103.956C536.709 102.874 537.398 101.791 538.382 100.808C539.365 99.7253 540.448 99.0366 541.53 98.6431C542.711 98.2495 543.793 98.1511 544.875 98.3479C545.957 98.5447 546.941 99.0366 547.827 99.9221C549.204 101.299 549.893 102.677 549.794 104.349C549.696 105.924 548.909 107.498 547.433 109.072C546.449 110.154 545.367 110.843 544.186 111.335C543.006 111.728 541.923 111.827 540.743 111.63C539.661 111.433 538.677 110.843 537.791 110.056C536.807 109.072 536.315 108.088 536.02 107.104ZM543.891 99.6269C542.711 99.9221 541.333 100.808 539.956 102.283C538.677 103.661 537.89 104.94 537.693 106.219C537.398 107.498 537.791 108.482 538.677 109.367C539.562 110.154 540.644 110.449 541.825 110.154C543.104 109.859 544.383 108.974 545.761 107.498C547.04 106.12 547.827 104.841 548.023 103.562C548.22 102.382 547.925 101.299 547.04 100.414C546.154 99.6269 545.17 99.3318 543.891 99.6269Z" fill="#313131"/>
<path d="M553.73 107.4L552.844 106.121L553.533 105.432L555.304 107.203C555.599 107.498 555.993 107.892 556.485 108.285C556.977 108.679 557.272 108.974 557.468 109.171C558.649 110.45 559.338 111.433 559.436 112.417C559.535 113.401 559.239 114.09 558.551 114.877C557.96 115.467 557.173 115.861 556.386 115.959C555.599 116.058 554.812 115.861 554.025 115.27C554.91 116.156 555.304 116.943 555.402 117.927C555.501 118.812 555.107 119.599 554.418 120.288C553.533 121.174 552.451 121.567 551.27 121.469C550.09 121.37 548.81 120.583 547.335 119.108C547.04 118.812 546.744 118.419 546.449 118.124C545.76 117.435 545.367 116.943 545.269 116.845L543.498 115.074L544.186 114.483L545.367 115.467L553.73 107.4ZM547.925 118.419C548.81 119.304 549.598 119.796 550.385 119.796C551.172 119.796 551.86 119.501 552.549 118.812C553.238 118.124 553.533 117.435 553.533 116.845C553.533 116.254 553.139 115.467 552.352 114.68C551.467 113.795 550.877 113.204 550.68 113.008L546.646 116.845C546.843 117.238 547.236 117.73 547.925 118.419ZM552.254 113.008L552.943 113.795C553.533 114.385 554.222 114.68 554.812 114.68C555.501 114.68 556.091 114.385 556.78 113.696C557.37 113.106 557.665 112.516 557.665 111.925C557.665 111.335 557.272 110.646 556.485 109.859C556.189 109.564 555.796 109.269 555.501 108.875L555.206 108.58L551.467 112.221C551.664 112.417 551.86 112.614 552.254 113.008Z" fill="#313131"/>
<path d="M574.391 128.257L573.702 128.848L572.522 127.765L563.765 135.341L564.749 136.817L564.06 137.407L560.617 133.373L561.306 132.783L562.486 133.865L571.341 126.29L567.406 121.764L558.551 129.438L559.535 130.914L558.846 131.504L555.402 127.569L556.091 126.978L557.173 127.962L565.93 120.386L565.044 119.009L565.733 118.419L574.391 128.257Z" fill="#313131"/>
<path d="M566.914 140.162C566.815 139.08 567.11 138.096 567.602 137.112C568.193 136.128 568.98 135.145 570.062 134.259C571.144 133.374 572.325 132.783 573.505 132.587C574.686 132.39 575.768 132.39 576.851 132.783C577.933 133.177 578.818 133.866 579.507 134.751C580.688 136.325 581.18 137.801 580.786 139.375C580.491 140.949 579.409 142.425 577.736 143.704C576.555 144.59 575.375 145.18 574.194 145.377C573.014 145.573 571.833 145.573 570.751 145.18C569.668 144.786 568.783 144.098 567.996 143.212C567.406 142.228 566.914 141.146 566.914 140.162ZM575.768 133.964C574.489 134.062 573.112 134.751 571.439 136.03C569.964 137.211 568.98 138.391 568.586 139.572C568.193 140.753 568.291 141.835 569.078 142.819C569.865 143.803 570.849 144.196 572.128 144.098C573.407 143.999 574.883 143.311 576.457 142.032C577.933 140.851 578.917 139.67 579.31 138.49C579.704 137.309 579.507 136.227 578.818 135.243C578.031 134.259 577.047 133.866 575.768 133.964Z" fill="#313131"/>
<path d="M579.704 149.607C578.13 150.394 576.851 150.886 575.867 150.985C575.375 150.985 574.883 150.985 574.588 150.788C574.194 150.591 573.899 150.394 573.604 150.001C573.21 149.509 573.013 149.115 572.915 148.82L574.096 147.836C574.194 148.131 574.489 148.525 574.883 149.017C574.981 149.214 575.178 149.312 575.375 149.41C575.572 149.509 575.768 149.509 576.063 149.509C577.834 149.41 580.589 148.033 584.229 145.377L585.41 144.491L584.328 142.622L585.115 142.031L591.412 150.788L590.625 151.378L589.444 150.099L579.999 156.888L580.884 158.462L580.097 158.954L576.752 154.231L577.539 153.739L578.818 155.215L588.263 148.427L586.099 145.377L584.721 146.36C582.95 147.836 581.278 148.82 579.704 149.607Z" fill="#313131"/>
<path d="M592.494 154.527L591.805 153.149L592.592 152.657L597.807 160.627L595.544 162.397L594.954 161.512L596.134 160.036L593.675 156.101L589.247 158.954L591.018 161.512L592.494 160.922L593.084 161.807L589.444 164.168L588.854 163.283L590.034 162.201L588.362 159.544L583.738 162.594L586.788 166.923L589.346 166.431L589.641 167.514L586.591 168.793L580.884 160.135L581.671 159.643L582.655 160.823L592.494 154.527Z" fill="#313131"/>
<path d="M600.955 167.612L599.184 164.956L595.445 166.431L594.855 165.349L599.283 163.086L605.284 173.122L601.053 175.876L600.463 174.893L603.513 172.334L601.939 169.481L591.805 175.483L592.986 177.844L592.199 178.336L588.558 172.236L589.345 171.744L590.723 173.712L600.955 167.612Z" fill="#313131"/>
<path d="M602.234 183.747L601.841 182.96C601.545 182.763 601.054 182.763 600.365 182.763C599.676 182.763 598.889 182.862 597.905 182.96C596.921 183.059 596.233 183.059 595.741 183.059C595.249 183.059 594.954 182.96 594.855 182.763L593.675 180.5L594.462 180.107L594.954 180.697C595.052 180.796 595.347 180.894 595.741 180.992C596.134 180.992 596.725 180.992 597.512 181.091C598.397 181.091 599.184 181.091 599.873 181.091C600.463 181.189 600.955 181.288 601.349 181.484C601.152 180.599 601.25 179.812 601.545 179.123C601.939 178.336 602.529 177.746 603.316 177.352C604.595 176.663 605.776 176.565 606.662 177.057C607.547 177.549 608.432 178.533 609.22 180.009C609.416 180.304 609.613 180.796 609.81 181.288C610.007 181.878 610.203 182.271 610.4 182.567L611.679 184.928L610.892 185.42L609.908 184.141L599.676 189.65L600.365 191.225L599.578 191.52L596.921 186.699L597.708 186.305L598.692 187.781L603.021 185.42L602.234 183.747ZM608.924 181.681C608.728 181.189 608.531 180.697 608.334 180.304C607.842 179.418 607.35 178.926 606.76 178.631C606.17 178.336 605.383 178.533 604.497 179.025C603.612 179.517 603.021 180.107 602.824 180.796C602.628 181.484 602.726 182.271 603.218 183.157C603.71 184.042 604.005 184.633 604.202 184.829L609.22 182.075L608.924 181.681Z" fill="#313131"/>
<path d="M613.745 191.225L612.27 188.372L608.433 189.552L607.941 188.47L612.565 186.601L617.681 197.03L613.254 199.391L612.762 198.309L616.008 196.046L614.729 193.094L604.104 198.21L605.087 200.67L604.3 201.063L601.152 194.668L601.939 194.275L603.218 196.341L613.745 191.225Z" fill="#313131"/>
<path d="M609.219 210.508C609.416 209.426 609.908 208.344 610.695 207.556C611.482 206.671 612.565 205.982 613.844 205.392C615.123 204.9 616.402 204.605 617.582 204.802C618.763 204.9 619.845 205.392 620.829 206.081C621.813 206.769 622.502 207.753 622.994 208.934C623.387 209.819 623.682 210.902 623.879 212.279L623.977 212.869L620.829 213.952L620.337 212.771L622.305 211.394C622.403 211.197 622.403 210.803 622.305 210.41C622.206 210.016 622.108 209.426 621.813 208.934C621.518 208.245 621.026 207.655 620.337 207.261C619.648 206.868 618.861 206.671 617.877 206.671C616.894 206.671 615.91 206.966 614.729 207.36C613.647 207.852 612.761 208.344 611.974 209.032C611.187 209.721 610.695 210.41 610.4 211.197C610.105 211.984 610.203 212.869 610.498 213.656C610.794 214.247 610.99 214.739 611.286 215.034C611.482 215.329 611.778 215.526 612.073 215.722H614.04L614.336 216.903L611.679 217.493C611.581 217.297 611.384 216.903 610.99 216.51C610.695 216.116 610.4 215.821 610.203 215.427C610.007 215.034 609.711 214.64 609.515 214.05C609.219 212.869 609.023 211.689 609.219 210.508Z" fill="#313131"/>
<path d="M627.126 219.757L626.24 220.052L625.355 218.379L616.5 221.626L619.157 222.315L627.224 225.07L627.716 224.873L627.323 223.2L628.208 222.905L629.979 227.726L629.094 228.021L628.405 226.742L617.484 230.776L617.878 232.35L616.992 232.645L615.221 227.726L616.107 227.431L616.894 228.907L625.847 225.66L623.289 225.07L615.123 222.216L614.533 222.413L614.926 224.086L614.041 224.381L612.27 219.462L613.155 219.166L613.844 220.544L624.765 216.51L624.469 215.034L625.355 214.739L627.126 219.757Z" fill="#313131"/>
<path d="M633.619 239.04L628.995 240.614L628.602 239.434L632.045 237.761L630.963 233.826L619.747 237.368L620.534 240.516L619.648 240.811L617.386 233.826L618.271 233.531L619.058 235.4L630.077 231.858L629.684 229.89L630.569 229.595L633.619 239.04Z" fill="#313131"/>
<path d="M633.423 242.484L633.226 241.008L634.111 240.811L635.39 245.731L634.505 245.927L633.914 244.452L629.094 245.731L630.766 252.126L635.587 250.847L635.39 249.371L636.276 249.174L637.555 253.995L636.669 254.192L636.079 252.814L624.863 255.864L625.06 257.34L624.174 257.537L622.895 252.716L623.781 252.519L624.371 253.995L629.585 252.618L627.913 246.223L622.698 247.6L622.895 249.174L622.01 249.371L620.632 244.452L621.518 244.255L622.108 245.632L633.423 242.484Z" fill="#313131"/>
<path d="M639.326 260.488L639.818 262.456L628.208 269.638L628.306 270.819L627.421 271.016L626.339 266.195L627.224 265.998L627.716 267.474L630.274 265.998L629.094 260.685L626.24 260.39L626.437 261.964L625.552 262.161L624.568 257.832L625.453 257.635L625.847 258.717L639.326 260.488ZM636.669 262.358L638.145 261.571L636.374 261.472L630.077 260.882L631.061 265.506L636.669 262.358Z" fill="#313131"/>
<path d="M633.226 274.951C631.455 274.951 630.176 274.853 629.192 274.459C628.7 274.263 628.306 274.066 628.11 273.771C627.814 273.476 627.716 273.082 627.618 272.688C627.519 272.098 627.421 271.705 627.519 271.409L628.995 271.016C628.995 271.311 629.093 271.803 629.192 272.393C629.192 272.59 629.29 272.787 629.487 272.984C629.585 273.18 629.782 273.279 630.077 273.377C631.652 274.066 634.8 273.967 639.227 273.18L640.703 272.885L640.506 270.721L641.392 270.524L643.261 281.15L642.376 281.346L641.884 279.674L630.471 281.642L630.569 283.511L629.684 283.708L628.7 278.001L629.585 277.805L630.077 279.674L641.49 277.706L640.801 273.967L639.129 274.263C636.866 274.656 634.898 274.853 633.226 274.951Z" fill="#313131"/>
<path d="M638.932 289.906C639.129 291.382 638.932 292.661 638.243 293.546C637.653 294.432 636.669 294.924 635.39 295.12C634.013 295.317 632.832 294.924 631.947 294.136C631.061 293.349 630.569 292.169 630.373 290.693C630.373 290.496 630.373 290.299 630.274 290.103C630.176 289.906 630.274 289.709 630.274 289.414C630.274 288.725 630.176 288.037 630.176 287.446L629.881 284.888L630.766 284.79L631.16 286.364L642.769 284.987L642.868 283.412L643.753 283.314L644.343 288.627L643.458 288.725L642.868 286.954L638.539 287.446L638.932 289.906ZM631.258 289.217C631.258 289.414 631.258 289.807 631.356 290.201C631.455 291.283 631.848 291.972 632.537 292.464C633.226 292.956 634.013 293.153 635.095 292.956C636.079 292.857 636.866 292.464 637.26 291.874C637.752 291.283 637.85 290.496 637.752 289.414L637.555 287.545L631.258 288.332C631.258 288.725 631.258 289.02 631.258 289.217ZM645.721 300.925L644.835 301.023L644.442 299.351L632.931 300.728V302.499L632.045 302.598L631.356 297.186L632.242 297.088L632.635 298.761L644.147 297.383V295.612L645.032 295.514L645.721 300.925Z" fill="#313131"/>
<path d="M645.131 309.583L645.327 308.107H646.213L646.41 313.223H645.524L645.229 311.649L640.211 311.846L640.506 318.438L645.524 318.241L645.721 316.765H646.606L646.803 321.783H645.918L645.622 320.307L634.013 320.897L633.915 322.373H633.029L632.832 317.355H633.718L634.013 318.831L639.424 318.536L639.129 311.944L633.718 312.239L633.619 313.912H632.734L632.537 308.796H633.423L633.718 310.272L645.131 309.583Z" fill="#313131"/>
<path d="M647 328.276V330.342L634.21 335.065L634.013 336.246H633.127L633.029 331.326H633.914L634.111 332.9L636.866 332.015L636.768 326.604L634.013 325.817L633.816 327.391H632.931L632.832 322.963H633.718L633.914 324.144L647 328.276ZM644.048 329.457L645.721 328.965L644.048 328.571L638.047 326.8L638.145 331.523L644.048 329.457Z" fill="#313131"/>
<path d="M645.524 344.117L645.918 342.05L646.803 342.149L646.508 347.068L637.948 349.134L635.587 349.626L637.948 350.315L646.213 353.463L645.918 358.383L645.032 358.284L644.934 356.218L633.226 357.005L632.931 358.579L632.045 358.481L632.34 353.07L633.226 353.168L633.324 354.841L641.785 354.546L645.426 354.349L642.769 353.365L633.226 349.626L633.324 348.446L642.474 345.986L646.114 345.1L642.474 344.51L634.111 343.231L633.816 345.1L632.931 345.002L633.226 340.181L634.111 340.28L634.21 341.854L645.524 344.117Z" fill="#313131"/>
<path d="M645.13 365.565L644.934 367.631L631.652 370.681L631.356 371.763L630.471 371.664L631.061 366.745L631.947 366.844V368.418L634.8 367.827L635.39 362.416L632.734 361.236L632.34 362.81L631.455 362.711L631.947 358.284L632.832 358.382L632.931 359.563L645.13 365.565ZM641.982 366.352L643.655 366.056L642.081 365.466L636.374 362.908L635.882 367.631L641.982 366.352Z" fill="#313131"/>
<path d="M642.572 375.6L643.064 374.223L643.95 374.321L643.556 376.781C643.458 377.273 643.458 377.666 643.36 378.06C643.261 378.748 643.261 379.339 643.163 379.929C642.868 381.7 642.376 382.881 641.589 383.569C640.801 384.16 639.818 384.455 638.44 384.258C637.456 384.061 636.669 383.766 635.981 383.176C635.292 382.585 634.898 381.897 634.603 381.011C634.308 380.126 634.308 379.142 634.505 378.158C634.603 377.765 634.603 377.469 634.702 377.076C634.8 376.682 634.8 376.485 634.898 376.387L630.864 375.797L630.274 378.256L629.389 378.158L630.373 372.156L631.258 372.255L631.16 373.829L642.572 375.6ZM635.489 378.355C635.292 379.339 635.489 380.126 635.981 380.913C636.472 381.7 637.358 382.093 638.735 382.29C639.818 382.487 640.605 382.29 641.097 381.897C641.687 381.405 641.982 380.618 642.179 379.535C642.277 379.142 642.277 378.748 642.277 378.256C642.277 377.961 642.277 377.765 642.277 377.666L635.685 376.682C635.685 376.977 635.587 377.568 635.489 378.355Z" fill="#313131"/>
<path d="M628.503 386.718C629.29 385.931 630.274 385.34 631.356 385.045C632.537 384.75 633.816 384.75 635.193 385.045C636.571 385.34 637.752 385.832 638.637 386.619C639.621 387.406 640.211 388.39 640.605 389.472C640.998 390.555 641.097 391.735 640.801 393.014C640.605 393.998 640.211 395.08 639.719 396.359L639.522 396.95L636.276 396.163L636.472 394.982H638.932C639.129 394.884 639.326 394.589 639.522 394.195C639.719 393.801 639.818 393.31 640.014 392.719C640.211 391.932 640.113 391.243 639.719 390.456C639.424 389.768 638.834 389.177 638.047 388.587C637.26 388.095 636.276 387.702 634.997 387.406C633.816 387.21 632.734 387.111 631.75 387.21C630.766 387.308 629.881 387.603 629.192 388.193C628.503 388.685 628.11 389.374 627.913 390.358C627.814 391.047 627.716 391.539 627.815 391.932C627.815 392.326 627.913 392.621 628.11 392.916L629.782 393.998L629.389 395.08L626.831 394.097C626.831 393.801 626.831 393.408 626.831 392.916C626.831 392.424 626.732 392.03 626.732 391.539C626.732 391.145 626.831 390.555 626.929 389.964C627.224 388.685 627.716 387.603 628.503 386.718Z" fill="#313131"/>
<path d="M635.98 413.184L635.095 412.888L635.39 411.019L626.339 408.559L628.11 410.626L633.029 417.611L633.521 417.709L634.21 416.135L635.095 416.43L633.718 421.35L632.832 421.054L633.029 419.579L621.813 416.529L621.223 418.005L620.337 417.808L621.714 412.79L622.6 412.987L622.305 414.659L631.455 417.217L629.684 415.348L624.764 408.264L624.076 408.068L623.387 409.74L622.502 409.543L623.879 404.427L624.764 404.624L624.568 406.198L635.784 409.248L636.374 407.871L637.259 408.166L635.98 413.184Z" fill="#313131"/>
<path d="M632.242 425.187C632.143 425.777 632.143 426.269 632.045 426.662C631.947 427.056 631.848 427.45 631.75 427.745C631.258 429.22 630.668 430.303 629.881 430.893C629.093 431.483 628.208 431.68 627.224 431.385C626.24 431.09 625.65 430.499 625.256 429.712C624.863 428.925 624.764 428.138 624.863 427.154C624.469 428.237 623.879 429.024 623.092 429.417C622.305 429.811 621.518 429.909 620.632 429.614C619.353 429.22 618.468 428.532 618.074 427.449C617.681 426.466 617.681 425.088 618.271 423.317C618.468 422.629 618.763 422.038 619.058 421.448C619.353 420.956 619.648 420.562 619.845 420.267C620.042 419.972 620.14 419.775 620.239 419.775L623.19 421.054L622.895 421.94L620.435 421.645C619.944 422.137 619.55 422.825 619.156 423.908C618.861 424.695 618.96 425.383 619.255 425.974C619.55 426.564 620.239 426.958 621.223 427.253C621.911 427.45 622.6 427.45 623.289 427.154C623.977 426.859 624.469 426.17 624.764 425.187L625.158 423.908L626.142 424.203L625.847 425.187C625.65 425.679 625.65 426.17 625.65 426.662C625.748 427.154 625.945 427.646 626.24 428.04C626.535 428.433 627.027 428.729 627.618 428.925C628.405 429.22 629.093 429.122 629.585 428.827C630.077 428.532 630.471 427.941 630.766 427.154C630.963 426.662 631.061 426.17 630.963 425.777C630.963 425.383 630.864 425.088 630.668 424.891L629.093 424.006L629.487 422.924L632.242 423.612C632.34 424.203 632.242 424.596 632.242 425.187Z" fill="#313131"/>
<path d="M626.142 440.24L626.929 438.862L627.815 439.158L626.929 441.519C626.732 441.912 626.634 442.404 626.437 443.093C626.24 443.683 626.142 444.077 626.044 444.372C625.453 445.946 624.765 447.028 623.978 447.52C623.191 448.012 622.305 448.111 621.42 447.717C620.632 447.422 619.944 446.93 619.55 446.143C619.157 445.454 619.058 444.667 619.157 443.782C618.763 444.864 618.173 445.651 617.386 446.143C616.599 446.537 615.713 446.635 614.828 446.241C613.647 445.749 612.86 444.962 612.466 443.88C612.073 442.798 612.171 441.224 612.958 439.354C613.155 438.961 613.254 438.567 613.45 438.174C613.844 437.288 614.041 436.698 614.139 436.6L615.024 434.238L615.91 434.533L615.516 436.009L626.142 440.24ZM613.647 439.65C613.155 440.83 613.155 441.814 613.352 442.503C613.549 443.191 614.237 443.782 615.123 444.077C616.008 444.47 616.795 444.47 617.386 444.175C617.976 443.88 618.468 443.191 618.862 442.208C619.353 441.027 619.55 440.24 619.649 439.945L614.434 437.977C614.336 438.075 614.041 438.666 613.647 439.65ZM620.337 441.224L619.944 442.208C619.649 442.995 619.649 443.683 619.944 444.274C620.239 444.864 620.829 445.356 621.616 445.651C622.403 445.946 623.092 445.946 623.682 445.749C624.174 445.454 624.666 444.864 625.06 443.782C625.257 443.388 625.355 442.896 625.453 442.503L625.552 442.109L620.731 440.24C620.731 440.437 620.534 440.732 620.337 441.224Z" fill="#313131"/>
<path d="M621.223 455.785L620.436 457.654L606.76 456.67L606.17 457.654L605.284 457.26L607.252 452.735L608.137 453.128L607.645 454.604L610.499 454.899L612.663 449.881L610.499 448.012L609.711 449.39L608.826 448.996L610.597 444.962L611.482 445.356L611.187 446.536L621.223 455.785ZM617.976 455.588L619.648 455.785L618.271 454.702L613.549 450.57L611.679 454.899L617.976 455.588Z" fill="#313131"/>
<path d="M604.497 460.409C605.481 459.819 606.563 459.523 607.744 459.523C608.924 459.523 610.203 459.917 611.482 460.507C612.761 461.098 613.745 461.885 614.434 462.869C615.123 463.852 615.516 464.935 615.615 466.115C615.713 467.296 615.418 468.477 614.926 469.559C614.532 470.444 613.844 471.428 613.057 472.51L612.663 473.002L609.712 471.33L610.302 470.247L612.663 470.838C612.86 470.739 613.155 470.543 613.45 470.149C613.745 469.854 614.041 469.362 614.237 468.772C614.631 468.083 614.729 467.296 614.532 466.509C614.434 465.722 614.041 465.033 613.352 464.344C612.663 463.656 611.876 462.967 610.695 462.475C609.613 461.983 608.629 461.59 607.645 461.491C606.662 461.393 605.776 461.491 604.989 461.786C604.202 462.081 603.612 462.672 603.218 463.557C602.923 464.148 602.726 464.639 602.726 465.033C602.628 465.427 602.726 465.722 602.726 466.017L604.005 467.493L603.316 468.477L601.152 466.902C601.25 466.706 601.349 466.312 601.447 465.722C601.546 465.23 601.644 464.836 601.742 464.443C601.841 464.049 602.037 463.557 602.333 462.967C602.726 461.983 603.513 460.999 604.497 460.409Z" fill="#313131"/>
<path d="M605.874 480.676C606.465 481.66 606.76 482.644 606.76 483.628C606.76 484.612 606.563 485.596 605.973 486.481C605.382 487.563 604.595 488.351 603.71 488.842C602.824 489.334 601.742 489.531 600.66 489.433C599.578 489.334 598.397 488.941 597.216 488.351C595.937 487.662 594.855 486.776 594.166 485.694C593.478 484.71 592.986 483.628 592.986 482.546C592.887 481.463 593.183 480.381 593.675 479.397C594.265 478.315 595.052 477.528 595.937 476.938C596.823 476.446 597.905 476.249 598.987 476.347C600.07 476.446 601.25 476.839 602.431 477.43L603.907 474.773L599.086 472.117L598.102 473.396L597.315 472.904L599.774 468.378L600.562 468.772L599.971 470.247L610.105 475.855L610.99 474.675L611.778 475.167L609.318 479.594L608.531 479.102L609.121 477.626L604.694 475.167L603.218 477.823C604.497 478.807 605.284 479.693 605.874 480.676ZM605.186 482.644C604.595 481.562 603.415 480.48 601.644 479.496C600.07 478.61 598.594 478.217 597.315 478.315C596.036 478.414 595.052 479.004 594.462 480.086C593.871 481.168 593.871 482.152 594.462 483.234C595.052 484.317 596.233 485.399 598.102 486.383C599.676 487.268 601.053 487.662 602.333 487.662C603.612 487.662 604.497 487.071 605.087 485.989C605.678 484.907 605.678 483.825 605.186 482.644Z" fill="#313131"/>
<path d="M591.018 495.828C590.231 495.926 589.149 495.926 587.87 495.926C586.984 495.926 586.296 495.926 585.804 495.926C585.41 495.926 585.115 496.025 584.918 496.221L584.328 496.713L583.541 496.221L584.721 494.254C584.918 494.057 585.213 493.86 585.902 493.86C586.492 493.86 587.378 493.86 588.558 493.86C589.838 493.959 590.821 493.959 591.609 493.86C592.297 493.86 592.789 493.663 592.986 493.27L593.576 492.286L589.05 489.433L587.968 490.712L587.181 490.22L589.936 485.891L590.723 486.383L590.034 487.76L599.873 493.959L600.857 492.778L601.644 493.27L598.987 497.5L598.2 497.008L598.791 495.533L594.265 492.679L593.379 494.057L595.937 500.157L596.921 498.976L597.708 499.468L595.249 503.404L594.462 502.912L595.052 501.534L592.592 495.238C592.494 495.533 591.805 495.729 591.018 495.828Z" fill="#313131"/>
<path d="M582.36 499.37C583.344 498.976 584.426 498.878 585.509 499.173C586.689 499.37 587.771 499.96 588.952 500.747C590.133 501.534 591.018 502.518 591.609 503.6C592.199 504.683 592.494 505.765 592.396 506.847C592.297 507.929 592.002 509.012 591.313 509.996C590.231 511.57 588.854 512.455 587.28 512.652C585.705 512.849 584.033 512.258 582.163 511.078C580.983 510.291 580.097 509.307 579.507 508.225C578.917 507.142 578.622 506.06 578.72 504.879C578.72 503.699 579.114 502.715 579.802 501.731C580.491 500.452 581.376 499.763 582.36 499.37ZM590.92 505.962C590.428 504.781 589.346 503.6 587.673 502.518C586.099 501.436 584.721 500.944 583.442 500.846C582.163 500.747 581.18 501.239 580.491 502.223C579.802 503.207 579.704 504.289 580.196 505.47C580.688 506.65 581.77 507.831 583.442 509.012C585.017 510.094 586.394 510.586 587.673 510.684C588.952 510.684 589.936 510.192 590.625 509.208C591.313 508.225 591.412 507.142 590.92 505.962Z" fill="#313131"/>
<path d="M584.82 516.784L585.902 515.702L586.689 516.292L585.213 518.26C584.918 518.555 584.623 519.047 584.328 519.637C584.033 520.129 583.738 520.523 583.541 520.72C582.459 522.097 581.573 522.884 580.688 523.179C579.802 523.474 578.917 523.278 578.13 522.687C577.441 522.195 576.949 521.507 576.752 520.72C576.555 519.933 576.654 519.145 577.047 518.358C576.359 519.342 575.572 519.933 574.686 520.129C573.801 520.326 572.915 520.129 572.128 519.539C571.144 518.752 570.554 517.768 570.455 516.587C570.357 515.407 570.947 513.931 572.128 512.357C572.423 511.963 572.718 511.668 572.915 511.373C573.505 510.586 573.899 510.192 573.997 509.996L575.473 508.028L576.162 508.618L575.375 509.996L584.82 516.784ZM573.013 512.849C572.226 513.833 571.931 514.718 572.03 515.505C572.128 516.292 572.522 516.981 573.309 517.571C574.096 518.162 574.784 518.358 575.473 518.26C576.162 518.162 576.752 517.67 577.441 516.784C578.228 515.8 578.72 515.112 578.818 514.816L574.391 511.471C573.997 511.471 573.604 511.963 573.013 512.849ZM579.015 516.194L578.425 516.981C577.933 517.67 577.736 518.358 577.834 519.047C577.933 519.736 578.326 520.326 579.113 520.818C579.802 521.31 580.491 521.507 581.081 521.408C581.671 521.31 582.262 520.818 582.95 519.933C583.246 519.539 583.442 519.145 583.738 518.752L583.934 518.457L579.802 515.308C579.507 515.505 579.31 515.8 579.015 516.194Z" fill="#313131"/>
<g style="mix-blend-mode:overlay">
<circle cx="63.1646" cy="172.067" r="2" transform="rotate(-15 63.1646 172.067)" fill="#313131"/>
</g>
<g style="mix-blend-mode:overlay">
<circle cx="447.247" cy="42.619" r="2" transform="rotate(-15 447.247 42.619)" fill="#313131"/>
</g>
</g>
</g>
<defs>
<clipPath id="clip0_1294_200">
<rect width="660" height="661" fill="white"/>
</clipPath>
</defs>
</svg>
