<svg width="375" height="420" viewBox="0 0 375 420" fill="none" xmlns="http://www.w3.org/2000/svg">
<rect opacity="0.8" x="35.7927" y="369.978" width="309.2" height="286.635" transform="rotate(-90 35.7927 369.978)"/>
<path d="M233.286 230.184L184.929 192.394L85.7211 251.496L136.658 192.394L43.6761 256.333L63.8185 223.469L8.69193 231.597L65.9388 182.831L0.567719 179.292L99.6437 143.402L10.6773 121.238L114.883 118.128L48.7824 87.7992L99.6437 92.3095L2.42609 17.4373L131.329 75.055L110.487 13.3425L147.043 55.3356L161.696 32.7483L181.243 67.9683L194.039 42.9902L200.655 71.3576L243.383 46.4456L228.077 92.3095L250.57 78.7524L233.286 103.71L374.432 102.169L233.286 129.733L265.671 137.584L239.665 139.547L341.727 175.857L246.16 169.05L288.625 205.614L228.077 190.252L233.286 230.184Z" fill="#FBCE51"/>
<mask id="mask0_2_1139" style="mask-type:alpha" maskUnits="userSpaceOnUse" x="76" y="98" width="231" height="235">
<path d="M87.0657 178.021L76.54 201.88V305.031L105.544 312.75V325.615L306.234 332.398V236.264H302.024L292.902 247.257L276.294 251.233L274.189 259.42L268.108 251.233H251.968L247.992 232.989L235.829 215.914V200.476L229.28 189.249L222.029 184.337L223.198 176.618L230.449 173.109L233.49 159.309L245.419 147.614V130.539L221.561 104.575L196.533 98.7278L169.166 111.826L160.044 130.539L153.728 147.614H148.115L138.525 151.122H128.233L110.69 159.309L87.0657 178.021Z" fill="#D9D9D9"/>
</mask>
<g mask="url(#mask0_2_1139)">
<rect width="231.565" height="231.565" transform="matrix(-1 0 0 1 306 100.833)"/>
</g>
<path fill-rule="evenodd" clip-rule="evenodd" d="M73.2654 204.387L84.3969 175.958L108.958 156.504L127.506 147.848L147.535 144.339L157.029 129.25L166.723 109.366L196.157 95.2772L223.289 101.616L248.694 129.263V148.989L236.478 160.965L233.305 175.365L226.177 178.814L231.733 186.955L242.627 200.476L239.104 214.867L251.968 228.77L254.606 247.959H269.754L272.726 251.96L273.614 248.508L291.078 244.326L300.486 232.989H312.595L309.509 335.786L102.27 328.781V315.267L73.2654 307.549V204.387ZM105.544 312.75V325.615L306.234 332.398V236.264H302.024L292.902 247.257L276.294 251.233L274.189 259.42L268.108 251.233H251.968L247.992 232.989L235.829 215.914V200.476L229.28 189.249L222.029 184.337L223.198 176.618L230.449 173.109L233.49 159.309L245.419 147.614V130.539L221.561 104.575L196.157 101.616L169.166 111.826L160.044 130.539L153.728 147.614H148.115L138.525 151.122H128.233L110.69 159.309L87.0657 178.021L76.54 201.88V305.031L105.544 312.75Z" fill="white"/>
<mask id="mask1_2_1139" style="mask-type:alpha" maskUnits="userSpaceOnUse" x="165" y="302" width="190" height="110">
<path d="M336.467 342.988L354.852 347.203L316.368 389.622L306.275 386.703L291.584 386.965L268.054 378.873L255.201 377.913L255.032 381.116L249.32 387.949L238.442 384.353L217.886 389.476L210.758 384.97L206.914 385.932L203.14 384.094L199.236 389.784L194.923 394.944L195.906 396.753L196.063 399.792L193.167 401.014L191.772 406.046L189.107 408.114L186.32 411.447L181.425 411.092L169.832 400.322L165.543 393.027L165.982 388.784L169.307 386.55L172.347 383.611L176.815 382.799L179.47 380.548L183.491 381.476L196.087 375.668L195.243 372.785L195.44 369.348L199.241 369.461L200.762 366.183L193.727 360.302L202.866 346.033L224.036 320.708L248.897 312.411L272.978 302.664L297.33 320.232L336.467 342.988Z" fill="#D9D9D9"/>
</mask>
<g mask="url(#mask1_2_1139)">
<rect x="207.491" y="205.593" width="202.442" height="303.625" transform="rotate(39.8926 207.491 205.593)"/>
</g>
<path fill-rule="evenodd" clip-rule="evenodd" d="M358.426 346.081L316.977 391.769L306.023 388.601L291.284 388.864L267.669 380.743L256.989 379.945L256.889 381.846L249.947 390.151L238.416 386.338L217.451 392.662L209.79 388.092L206.657 388.905L204.275 387.803L201.093 391.608L198.212 395.64L199.125 400.456L195.583 403.439L194.513 407.799L189.711 411.401L186.091 414.403L180.742 413.93L172.724 407.228L167.489 401.441L163.009 393.051L162.798 388.013L167.545 383.995L172.377 380.953L177.084 378.247L181.535 377.686L192.412 374.792L192.875 374.404L192.295 373.074L193.308 367.014L198.077 367.16L198.358 366.642L191.233 360.685L201.337 344.911L224.463 316.643L273.388 299.649L298.362 318.643L337.17 341.207L358.426 346.081ZM351.278 348.326L335.763 344.769L296.298 321.822L272.718 304.811L249.552 314.188L225.144 322.334L204.395 347.155L196.22 359.919L203.164 365.724L200.292 371.017L196.497 370.9L196.215 372.59L197.477 375.488L194.47 378.007L184.197 382.864L181.023 381.567L179.034 381.817L177.182 384.033L173.734 384.573L169.787 387.057L166.658 389.706L166.755 392.03L170.609 399.247L175.355 404.492L182.259 410.263L184.874 410.495L187.365 408.428L191.159 405.582L192.201 401.338L194.993 398.986L194.191 394.756L198.096 389.29L203.23 383.149L207.017 384.9L210.371 384.03L217.957 388.555L238.468 382.367L248.692 385.748L253.174 380.386L253.412 375.881L268.439 377.004L291.884 385.066L306.526 384.805L315.76 387.476L351.278 348.326Z" fill="url(#paint0_linear_2_1139)"/>
<path d="M87.9074 361.72L85.0188 394.65L128.783 336.412L183.239 327.319L142.131 323.361L162.598 292.735L142.131 306.539L152.082 263.995L120.793 306.212L95.2885 243.826L95.2885 295.983L59.5845 279.295L72.1066 309.763L10.164 315.996L76.448 336.412L38.3008 352.825L80.7441 352.825L57.9608 383.817L87.9074 361.72Z" fill="#FBCE51"/>
<mask id="mask2_2_1139" style="mask-type:alpha" maskUnits="userSpaceOnUse" x="75" y="301" width="99" height="103">
<path d="M76.939 312.078C75.4391 313.185 75.3376 314.096 75.4743 314.413C77.4681 316.651 77.5703 317.669 77.3723 317.899C77.0413 321.046 77.2125 323.165 78.3688 327.066C79.5251 330.967 81.5484 334.357 85.0341 338.825C88.5199 343.293 88.244 345.787 89.1725 347.52C89.9154 348.907 90.8977 349.854 91.296 350.155C92.8363 352.405 94.0039 353.202 94.3951 353.319C98.1676 355.204 101.513 353.297 102.714 352.108C107.749 351.86 107.1 346.54 106.142 344.706C105.375 343.24 104.169 340.728 103.662 339.656C103.882 338.954 103.646 338.362 103.501 338.154C103.672 335.903 104.224 334.986 104.479 334.809C108.793 340.025 109.003 346.65 108.569 349.311C108.095 353.908 107.187 363.895 107.35 367.073C107.554 371.046 111.567 374.671 112.801 375.609C113.788 376.36 114.685 376.865 115.01 377.023C120.841 385.551 120.553 388.452 119.857 390.032C119.161 391.612 116.869 393.247 117.77 394.997L123.231 402.812C125.723 406.377 176.708 371.199 173.166 366.131L167.956 358.674C166.28 357.429 163.481 359.596 161.238 359.564C158.979 359.533 152.03 353.201 150.309 350.737C150.049 348.365 148.887 348.863 148.913 346.74C148.939 344.617 146.299 342.574 146.029 342.351C145.759 342.128 144.419 340.342 143.836 340.063C143.252 339.785 141.74 339.355 141.31 338.283C140.884 337.218 140.007 336.379 139.589 335.978L139.58 335.969C139.165 335.573 137.981 335.874 137.354 334.094C136.727 332.313 135.771 331.403 135.26 331.097C134.749 330.791 134.47 329.933 134.186 329.56C133.902 329.186 133.428 327.002 132.723 326.19C132.019 325.379 130.801 323.215 130.276 321.943C129.752 320.671 128.58 320.141 126.919 317.66C125.258 315.178 125.13 316.142 123.116 313.833C121.102 311.525 119.985 310.812 119.273 310.471C118.562 310.131 116.929 308.576 115.944 307.844C114.959 307.112 113.55 307.076 111.364 305.617C109.178 304.157 108.097 303.965 107.344 303.982C106.59 303.998 104.877 302.901 103.999 302.531C103.121 302.161 100.186 302.027 99.5716 301.982C98.9576 301.937 97.8206 301.457 97.0474 301.706C96.2742 301.955 91.8684 302.374 91.0097 302.501C90.151 302.627 87.6159 303.743 85.7144 304.671C83.813 305.599 82.706 307.247 80.5227 308.918C78.3394 310.59 78.8139 310.695 76.939 312.078Z" fill="#D9D9D9"/>
</mask>
<g mask="url(#mask2_2_1139)">
<rect width="333.271" height="222.533" transform="matrix(-0.819699 0.572795 0.572795 0.819699 180.511 145.364)"/>
</g>
<g style="mix-blend-mode:color-burn">
<rect x="1" y="420" width="420" height="374" transform="rotate(-90 1 420)"/>
</g>
<defs>
<linearGradient id="paint0_linear_2_1139" x1="249.145" y1="413.198" x2="212.178" y2="299.872" gradientUnits="userSpaceOnUse">
<stop stop-color="#E8DCD1"/>
<stop offset="1" stop-color="white"/>
</linearGradient>
</defs>
</svg>
