<svg width="530" height="609" viewBox="0 0 530 609" fill="none" xmlns="http://www.w3.org/2000/svg">
<rect opacity="0.8" x="50.3455" y="523.798" width="437.495" height="405.567" transform="rotate(-90 50.3455 523.798)"/>
<path d="M329.784 326L261.362 272.531L120.991 356.155L193.062 272.531L61.5 363L90 316.5L12 328L93 259L0.504883 253.992L140.69 203.21L14.8091 171.851L162.253 167.45L68.7251 124.537L140.69 130.919L3.13434 24.98L185.522 106.505L156.032 19.1862L207.756 78.6032L228.49 46.6438L256.148 96.4776L274.252 61.1354L283.613 101.273L344.07 66.0245L322.414 130.919L354.239 111.736L329.784 147.049L529.495 144.869L329.784 183.87L375.606 194.978L338.809 197.755L483.22 249.132L348 239.5L408.084 291.236L322.414 269.5L329.784 326Z" fill="#FBCE51"/>
<mask id="mask0_1294_201" style="mask-type:alpha" maskUnits="userSpaceOnUse" x="108" y="140" width="325" height="331">
<path d="M122.893 252.194L108 285.952V431.904L149.039 442.826V461.028L433 470.626V334.603H427.043L414.135 350.158L390.637 355.784L387.659 367.368L379.054 355.784H356.218L350.592 329.969L333.382 305.81V283.966L324.115 268.08L313.855 261.13L315.51 250.209L325.77 245.244L330.072 225.718L346.951 209.17V185.01L313.193 148.274L277.781 140L239.059 158.534L226.152 185.01L217.216 209.17H209.273L195.704 214.134H181.142L156.32 225.718L122.893 252.194Z" fill="#D9D9D9"/>
</mask>
<g mask="url(#mask0_1294_201)">
<rect width="327.648" height="327.648" transform="matrix(-1 0 0 1 432.669 142.979)"/>
</g>
<path fill-rule="evenodd" clip-rule="evenodd" d="M103.367 289.5L119.117 249.275L153.868 221.749L180.114 209.501L208.452 204.537L221.886 183.187L235.602 155.052L277.25 135.118L315.639 144.087L351.585 183.205V211.116L334.3 228.061L329.811 248.436L319.726 253.316L327.586 264.835L343 283.966L338.015 304.328L356.218 324L359.95 351.151H381.384L385.589 356.812L386.845 351.928L411.555 346.011L424.867 329.969H442L437.633 475.419L144.405 465.508V446.387L103.367 435.466V289.5ZM149.039 442.826V461.028L433 470.626V334.603H427.043L414.135 350.158L390.637 355.784L387.659 367.368L379.054 355.784H356.218L350.592 329.969L333.382 305.81V283.966L324.115 268.08L313.855 261.13L315.51 250.209L325.77 245.244L330.072 225.718L346.951 209.17V185.01L313.193 148.274L277.25 144.087L239.059 158.534L226.152 185.01L217.216 209.17H209.273L195.704 214.134H181.142L156.32 225.718L122.893 252.194L108 285.952V431.904L149.039 442.826Z" fill="white"/>
<mask id="mask1_1294_201" style="mask-type:alpha" maskUnits="userSpaceOnUse" x="233" y="428" width="269" height="155">
<path d="M475.777 485.61L501.791 491.574L447.339 551.594L433.057 547.463L412.271 547.834L378.978 536.385L360.791 535.027L360.552 539.558L352.47 549.227L337.079 544.138L307.993 551.386L297.909 545.012L292.469 546.372L287.129 543.771L281.606 551.823L275.503 559.124L276.894 561.683L277.116 565.983L273.018 567.713L271.045 574.832L267.273 577.758L263.33 582.475L256.404 581.972L240 566.733L233.932 556.412L234.554 550.407L239.258 547.246L243.559 543.088L249.881 541.939L253.638 538.754L259.328 540.067L277.15 531.849L275.955 527.771L276.234 522.908L281.612 523.067L283.764 518.429L273.81 510.109L286.742 489.919L316.695 454.085L351.872 442.345L385.945 428.555L420.401 453.412L475.777 485.61Z" fill="#D9D9D9"/>
</mask>
<g mask="url(#mask1_1294_201)">
<rect x="293.286" y="291.206" width="286.44" height="429.607" transform="rotate(39.8926 293.286 291.206)"/>
</g>
<path fill-rule="evenodd" clip-rule="evenodd" d="M506.848 489.985L448.2 554.631L432.701 550.148L411.847 550.52L378.434 539.03L363.322 537.901L363.18 540.591L353.358 552.341L337.042 546.946L307.379 555.895L296.539 549.428L292.106 550.578L288.735 549.019L284.234 554.404L280.157 560.109L281.449 566.922L276.438 571.143L274.923 577.312L268.129 582.409L263.007 586.657L255.437 585.987L244.094 576.504L236.686 568.317L230.347 556.446L230.048 549.316L236.765 543.632L243.603 539.327L250.262 535.499L256.56 534.705L271.95 530.61L272.605 530.061L271.785 528.179L273.217 519.604L279.966 519.812L280.364 519.078L270.282 510.65L284.578 488.331L317.3 448.334L386.525 424.288L421.862 451.163L476.771 483.09L506.848 489.985ZM496.733 493.162L474.782 488.13L418.941 455.661L385.578 431.593L352.799 444.859L318.263 456.386L288.906 491.506L277.338 509.566L287.164 517.78L283.099 525.268L277.73 525.103L277.331 527.495L279.117 531.595L274.862 535.159L260.327 542.031L255.835 540.196L253.022 540.55L250.401 543.686L245.522 544.449L239.938 547.964L235.51 551.712L235.648 555L241.101 565.212L247.816 572.634L257.584 580.799L261.284 581.127L264.81 578.203L270.177 574.176L271.651 568.171L275.602 564.843L274.468 558.857L279.993 551.124L287.257 542.434L292.616 544.912L297.361 543.681L308.094 550.084L337.116 541.329L351.583 546.112L357.925 538.525L358.261 532.152L379.522 533.74L412.696 545.148L433.414 544.778L446.478 548.556L496.733 493.162Z" fill="url(#paint0_linear_1294_201)"/>
<path d="M124.084 512.114L119.997 558.708L181.919 476.305L258.971 463.44L200.806 457.839L229.765 414.506L200.806 434.038L214.886 373.841L170.615 433.575L134.528 345.304L134.528 419.101L84.009 395.489L101.727 438.599L14.0827 447.418L107.87 476.305L53.8941 499.529L113.948 499.529L81.7116 543.38L124.084 512.114Z" fill="#FBCE51"/>
<mask id="mask2_1294_201" style="mask-type:alpha" maskUnits="userSpaceOnUse" x="106" y="427" width="139" height="144">
<path d="M108.565 441.875C106.442 443.44 106.299 444.73 106.492 445.179C109.313 448.345 109.458 449.786 109.178 450.11C108.709 454.564 108.952 457.561 110.588 463.081C112.224 468.6 115.087 473.397 120.019 479.719C124.951 486.042 124.56 489.571 125.874 492.023C126.925 493.985 128.315 495.325 128.879 495.75C131.058 498.935 132.71 500.062 133.264 500.227C138.602 502.895 143.335 500.197 145.035 498.514C152.159 498.163 151.24 490.636 149.884 488.041C148.8 485.966 147.094 482.413 146.376 480.896C146.687 479.901 146.353 479.064 146.148 478.77C146.39 475.585 147.171 474.287 147.532 474.037C153.635 481.417 153.933 490.792 153.319 494.556C152.648 501.06 151.363 515.192 151.594 519.689C151.883 525.309 157.56 530.44 159.306 531.767C160.703 532.828 161.972 533.543 162.432 533.767C170.682 545.833 170.276 549.938 169.29 552.174C168.305 554.409 165.063 556.723 166.338 559.198L174.065 570.256C177.59 575.301 249.73 525.526 244.719 518.356L237.346 507.805C234.975 506.043 231.016 509.109 227.842 509.064C224.645 509.019 214.813 500.06 212.377 496.574C212.009 493.218 210.365 493.922 210.402 490.919C210.44 487.915 206.704 485.024 206.322 484.708C205.939 484.393 204.044 481.866 203.218 481.472C202.393 481.078 200.253 480.47 199.645 478.952C199.043 477.446 197.802 476.258 197.21 475.692L197.196 475.679C196.61 475.118 194.934 475.545 194.047 473.025C193.16 470.505 191.808 469.218 191.084 468.785C190.361 468.352 189.966 467.139 189.565 466.61C189.163 466.082 188.492 462.991 187.495 461.842C186.498 460.694 184.776 457.633 184.033 455.833C183.29 454.032 181.633 453.284 179.283 449.772C176.932 446.261 176.751 447.624 173.901 444.358C171.052 441.092 169.471 440.083 168.464 439.601C167.458 439.119 165.147 436.92 163.753 435.884C162.359 434.848 160.366 434.798 157.273 432.732C154.181 430.667 152.651 430.396 151.585 430.419C150.519 430.443 148.094 428.89 146.852 428.366C145.61 427.843 141.457 427.652 140.588 427.589C139.719 427.526 138.111 426.847 137.017 427.199C135.923 427.551 129.689 428.145 128.474 428.324C127.259 428.503 123.672 430.081 120.981 431.394C118.291 432.708 116.725 435.039 113.635 437.404C110.546 439.769 111.217 439.918 108.565 441.875Z" fill="#D9D9D9"/>
</mask>
<g mask="url(#mask2_1294_201)">
<rect width="471.553" height="314.868" transform="matrix(-0.819699 0.572795 0.572795 0.819699 255.111 205.986)"/>
</g>
<g style="mix-blend-mode:color-burn">
<rect x="1" y="609" width="609" height="528" transform="rotate(-90 1 609)"/>
</g>
<defs>
<linearGradient id="paint0_linear_1294_201" x1="352.223" y1="584.951" x2="299.918" y2="424.604" gradientUnits="userSpaceOnUse">
<stop stop-color="#E8DCD1"/>
<stop offset="1" stop-color="white"/>
</linearGradient>
</defs>
</svg>
