<svg width="320" height="320" viewBox="0 0 320 320" fill="none" xmlns="http://www.w3.org/2000/svg">
<g clip-path="url(#clip0_1290_3)">
<rect width="320" height="320" fill="#424241"/>
<path d="M159.593 166.455L160.115 166.745L160.304 167.538L156.38 176.846C156.138 176.601 155.951 176.368 155.747 176.092C156.092 175.436 156.273 174.692 156.576 174.012L159.593 166.455Z" fill="#010000"/>
<path d="M175.229 134.705L176.052 134.603C175.524 141.014 172.796 146.821 167.879 151.033C167.622 151.254 167.437 151.384 167.127 151.53C165.305 150.917 163.452 149.94 161.829 148.913L162.021 148.558C163.591 149.021 165.296 150.058 166.808 150.752C167.167 150.541 167.475 150.321 167.793 150.05C171.818 146.609 174.812 139.909 175.229 134.705Z" fill="#010000"/>
<path d="M162.021 148.558L161.902 148.211L175.319 132.612L175.229 134.705C174.812 139.909 171.818 146.609 167.793 150.049C167.475 150.321 167.167 150.54 166.808 150.752C165.296 150.058 163.59 149.021 162.021 148.558Z" fill="#0C0C0C"/>
<path d="M159.593 166.455L162.626 159.068C163.686 156.595 164.718 153.289 167.04 151.772L167.584 151.375C172.679 154.031 175.545 160.89 177.165 166.121C178.03 168.917 178.296 171.618 178.004 174.527C177.279 173.686 176.784 172.346 176.229 171.361C174.811 168.844 173.403 166.679 172.368 163.96C172.27 165.912 172.353 169.124 171.039 170.673L170.836 170.93L170.697 171.101C171.352 173.635 173.36 175.852 173.634 178.565L171.118 173.224C170.044 176.933 168.691 181.015 166.795 184.38C166.567 184.785 166.244 185.574 165.866 185.833L165.792 185.639C164.896 183.344 163.739 181.21 162.895 178.883C162.697 178.337 162.88 177.889 163.027 177.349C163.352 176.154 164.546 173.438 164.295 172.276C164.145 171.582 163.158 170.394 162.8 169.668C162.111 168.266 161.481 166.791 161 165.303C160.797 166.062 160.614 166.815 160.304 167.538L160.115 166.745L159.593 166.455Z" fill="#0C0C0C"/>
<path d="M145.927 27.1301C154.558 17.9529 168.243 20.8333 178.731 24.5149C181.803 25.593 185.785 27.707 189.071 27.5208C190.839 27.4204 192.76 26.6482 193.72 24.5149C197.241 25.0478 199.838 25.9942 201.544 29.2678C203.645 33.3005 203.484 37.3149 202.184 41.5334C202.252 41.822 202.162 41.7474 202.395 41.8108C204.304 42.3301 205.647 43.0315 206.922 44.5725C208.835 46.8825 209.705 49.9757 209.364 52.9514C209.033 55.8414 207.529 59.0716 205.453 61.1233C204.507 62.0578 203.315 62.8355 202.261 63.6516C202.505 66.7922 203.643 70.4994 203.323 73.3801C202.772 75.4837 201.577 77.6603 200.839 78.5393L200.602 78.7805H200.601C200.595 79.9812 200.362 80.4493 199.749 81.4299C199.668 81.5588 199.292 82.0568 199.277 82.1663C199.211 82.6349 199.629 83.837 199.708 84.3665C199.992 86.2856 200.221 88.2966 200.089 90.2375C199.913 92.853 199.025 95.1658 198.428 97.679C198.244 98.4573 198.256 99.2836 198.03 100.051C197.712 101.131 197.039 102.143 196.619 103.193C196.179 104.292 196.061 105.461 195.784 106.601L195.988 107.578C196.146 108.256 196.119 108.7 195.996 109.377L195.951 109.636C195.514 112.051 194.403 114.289 193.83 116.666C193.34 118.693 193.474 120.812 193.257 122.869C193.184 123.575 193.061 124.301 192.842 124.976C192.435 126.24 191.506 127.492 190.416 128.251C187.979 129.948 184.642 130.032 181.817 129.48L176.407 127.99C176.45 129.208 176.714 130.903 176.268 132.031C175.979 132.764 176.07 133.815 176.051 134.603L175.229 134.705L175.319 132.613L161.903 148.211L162.021 148.558L161.829 148.913L141.255 136.243C138.617 134.391 133.741 131.386 133.293 127.871C133.167 126.888 133.637 125.981 134.224 125.226C134.898 124.359 135.902 123.634 137.016 123.529L137.212 123.514L137.501 123.485L137.675 123.475C138.54 119.103 138.94 114.538 139.213 110.092C139.274 109.09 139.566 107.599 139.289 106.647C138.642 106.412 138.079 106.129 137.577 105.647C136.04 104.171 134.875 101.456 133.818 99.5813C127.756 88.8351 123.056 77.6067 122.576 65.1096C122.142 53.8117 124.198 40.2621 134.953 34.1887C136.488 33.3213 138.086 32.5889 139.822 32.2297C140.426 32.1046 142.111 32.0794 142.549 31.8079C142.947 31.5611 143.64 30.0972 143.928 29.6575C144.513 28.7638 145.195 27.9083 145.927 27.1301ZM193.064 78.4573C193.25 78.7415 193.322 78.7481 193.299 79.0989H193.3C193.309 78.9676 193.304 78.884 193.285 78.8167C193.266 78.7491 193.232 78.6972 193.183 78.6282C193.151 78.5822 193.112 78.5284 193.065 78.4573H193.064ZM196.7 78.2561C196.604 78.2507 196.506 78.2478 196.408 78.2493C196.506 78.2478 196.604 78.2507 196.7 78.2561Z" fill="#0C0C0C"/>
<path d="M165.618 298.164L170.365 298.162C170.748 298.162 171.649 298.053 171.966 298.162C172.098 298.207 172.178 298.344 172.284 298.435L172.188 298.72L167.251 298.773C166.702 298.767 165.942 298.874 165.479 298.567L165.618 298.164Z" fill="#010000"/>
<path d="M162.249 288.613C163.396 289.419 164.708 289.207 166.071 289.219L171.824 289.254C171.423 289.575 170.694 289.444 170.171 289.445L165.11 289.452C165.231 289.799 165.256 289.75 165.544 289.938C164.547 289.962 163.416 289.872 162.467 290.194C162.179 290.657 162.233 290.89 162.228 291.426L162.066 291.244C161.979 290.839 161.921 290.671 162.059 290.269C162.243 289.728 162.23 289.18 162.249 288.613Z" fill="#161515"/>
<path d="M184.206 309.007L189.709 309.025C190.553 309.028 191.57 308.92 192.396 309.047L192.164 309.25L187.206 309.286L186.982 309.656C187.503 310.002 188.711 309.852 189.361 309.857L195.96 309.862C196.926 309.858 198.195 309.69 199.1 309.957C197.365 310.224 195.475 310.097 193.718 310.104L184.08 310.069L184.41 309.494L184.206 309.007Z" fill="#161515"/>
<path d="M189.732 277.468L194.747 277.387C196.473 277.862 198.691 277.599 200.488 277.589L200.417 277.838C199.831 278.097 199.175 277.961 198.56 278.081C197.506 278.264 196.172 278.109 195.09 278.1L187.012 278.024L186.965 277.838L186.146 277.777L186.052 277.589L189.516 277.494L189.732 277.468Z" fill="#010000"/>
<path d="M171.448 294.227C172.216 294.206 173.533 294.012 174.255 294.165C174.82 294.207 175.397 294.142 175.874 294.456C175.801 294.54 175.524 294.807 175.52 294.912L164.213 294.907L164.12 294.699L162.421 294.645L162.606 294.407C163.323 294.243 164.004 294.361 164.729 294.391C165.741 294.433 170.934 294.702 171.448 294.227Z" fill="#010000"/>
<path d="M196.391 259.402L202.481 259.52C202.371 259.825 202.359 260.126 202.072 260.294L197.753 260.106C197.677 259.969 197.718 259.772 197.719 259.617C197.239 259.606 196.77 259.709 196.391 259.402Z" fill="#161515"/>
<path d="M131.751 128.74C131.021 130.117 130.214 132.019 130.023 133.566C129.443 138.277 131.074 143.907 132.507 148.391C132.947 149.77 133.418 150.828 134.284 151.998C139.201 158.646 145.335 164.38 150.862 170.512L154.408 174.551C154.801 175.009 155.266 175.77 155.747 176.092C155.951 176.367 156.138 176.601 156.38 176.846L155.749 178.099L134.164 154.589L140.796 174.33C146.31 189.802 152.701 204.669 160.636 219.061C163.882 224.948 167.292 231.169 171.931 236.087C173.102 234.634 173.912 232.845 174.696 231.164L178.299 222.378C181.797 212.606 183.311 202.215 183.653 191.872C183.785 187.881 183.872 183.902 183.555 179.917C183.187 175.292 182.229 170.707 181.715 166.094L179.875 147.512L178.686 139.202C178.362 137.309 177.929 135.665 177.86 133.714C181.279 135.482 183.875 138.394 186.188 141.433C187.301 142.897 188.166 144.607 189.15 146.163C193.145 152.486 196.656 159.08 200.972 165.203C199.469 167.526 197.108 169.579 195.201 171.588L195.476 171.807L195.201 171.589L191.963 174.804L195.159 176.931C196.38 177.673 205.791 182.951 205.956 183.296L205.543 187.595L199.414 220.874L197.248 230.694C196.587 233.464 195.63 236.394 195.384 239.234C196.175 237.984 196.529 236.385 196.964 234.975C198.396 230.339 199.456 225.615 200.521 220.884C201.138 218.149 201.8 215.467 202.205 212.696L206.362 188.202C206.362 188.2 206.361 188.199 206.361 188.198C206.859 186.558 207.006 184.545 207.17 182.843L192.954 174.829C193.786 173.772 194.703 172.888 195.695 171.983L202.255 165.515L187.104 141.734L220.862 151.998C223.651 153.427 227.027 154.609 229.407 156.646C230.888 157.913 231.661 159.95 232.333 161.718C236.121 171.681 238.778 182.142 241.696 192.385L253.87 235.459L260.443 259.196L263.176 269.452C264.467 274.249 266.123 279.176 266 284.194C265.834 290.937 263.005 297.253 260.592 303.434L254.879 317.229L247.991 331.676C248.615 336.814 247.991 342.255 244.479 345.797L307 346.284L306.979 354.403L14 354.452L14.1973 346.256L124.055 346.21L124.19 341.069C123.561 340.704 122.079 340.664 121.321 340.512L117.5 333.69L84.9971 325.531C78.8382 324.096 72.4237 322.803 66.5029 320.573C62.3374 319.004 58.698 315.802 56.3281 312.063C53.3931 307.433 52.2307 302.191 52.0527 296.766C51.8818 291.546 52.4928 286.258 53.1221 281.085L55.6191 261.794L61.2461 220.422L66.8145 184.972L68.8496 174.475C69.5538 171.402 70.3024 167.753 72.333 165.241C73.2676 164.085 74.6195 163.161 75.8037 162.275L84.1318 156.646L113.5 143.5C115.973 142.264 117.809 141.649 119.793 139.802L122.377 137.367L126.65 132.743C127.431 131.891 128.204 130.937 129.136 130.248L131.896 128.469L131.751 128.74ZM138.911 299.544C137.658 299.325 134.881 298.524 133.724 298.906C128.319 302.373 125.104 310.075 123.777 316.117C122.367 322.544 122.178 330.226 125.182 336.242L140.641 338.239L140.879 337.83C140.301 335.649 139.73 333.503 139.483 331.252C138.7 324.103 140.124 315.656 143.721 309.367C145.532 306.199 147.591 303.465 150.878 301.717C146.947 300.786 142.892 300.241 138.911 299.544ZM164.795 299.032C164.428 304.965 163.887 310.925 162.526 316.724C162.172 318.237 161.844 319.987 161.201 321.399L159.443 322.075C159.324 322.418 159.317 322.255 159.425 322.563L162.394 322.633L174.759 322.687C176.216 322.682 178.009 322.443 179.43 322.644L179.519 322.892L179.766 323.555C179.97 324.099 180.077 324.464 180.585 324.801C184.785 325.792 189.949 325.143 194.326 325.146H203.322C205.563 325.146 209.084 325.145 205.917 319.764C205.225 318.858 204.402 318.278 203.634 317.467C202.754 316.539 201.584 315.053 201.014 313.921C200.697 313.293 200.387 312.569 200.236 311.88C200.103 311.275 200.175 310.561 199.858 310.027L199.1 309.956C197.365 310.224 195.475 310.097 193.718 310.104L184.081 310.069C183.781 311.644 183.408 312.916 182.547 314.284C180.945 316.827 178.055 318.827 177.688 321.987L177.562 322.129C175.783 319.726 175.366 316.278 174.826 313.382C173.944 308.649 173.147 303.809 173.136 298.984L164.795 299.032ZM209.526 308.797C209.449 309.615 209.417 310.539 209.059 311.289C208.04 313.42 205.114 314.332 204.296 316.607C204.364 317.314 204.477 317.432 204.96 317.933C205.757 318.761 206.625 319.744 207.639 320.295L219.866 320.463C221.401 320.459 223.541 320.169 225.015 320.476C226.42 320.239 227.973 320.508 229.292 319.897C229.725 319.316 230.208 318.438 230.185 317.69C230.105 315.171 226.908 314.057 225.343 312.629C224.183 311.57 224.08 310.288 223.986 308.798L209.526 308.797ZM188.024 282.529C187.574 288.743 187.077 294.86 186.094 301.017C185.725 303.322 185.43 306.304 184.235 308.332C184.054 308.641 184.135 308.67 184.206 309.006L189.709 309.025C190.553 309.028 191.57 308.921 192.396 309.047C195.008 308.985 197.834 309.288 200.402 308.961L200.441 308.729L199.72 308.397C197.89 306.299 196.262 286.305 196.071 282.392L188.024 282.529ZM210.506 307.158L209.224 307.449L209.059 307.802C209.19 307.924 209.291 308.091 209.454 308.166C210.405 308.603 212.838 308.271 213.914 308.243C217.348 308.151 220.806 307.93 224.237 308.143L224.705 307.895C224.582 307.634 224.624 307.64 224.497 307.596L224.3 307.523L223.94 307.463C223.592 307.401 223.273 307.321 222.939 307.129C222.175 305.365 221.852 303.294 221.487 301.408L219.689 289.57L213.116 289.561L210.506 307.158ZM222.959 307.784L223.37 307.79C223.234 307.79 223.096 307.788 222.959 307.785L222.545 307.767C222.683 307.774 222.822 307.78 222.959 307.784ZM164.213 294.907C163.112 294.918 161.096 294.717 160.079 295.113C159.658 295.277 159.041 295.893 158.729 296.231L157.604 297.661C162.311 298.303 167.449 297.948 172.213 297.94L176.413 297.912C177.3 297.899 178.196 297.967 179.029 297.625C179.109 297.174 179.058 297.107 178.771 296.72C178.231 295.995 177.132 295.087 176.202 294.957L175.52 294.911L164.213 294.907ZM105.242 291.761C105.02 291.757 104.947 291.796 104.761 291.862C107.553 292.93 126.961 298.448 128.643 297.793C127.97 297.015 125.854 296.673 124.809 296.37L108.364 292.43C107.418 292.233 106.186 291.779 105.242 291.761ZM171.775 292.41C168.873 292.34 165.954 292.258 163.055 292.453C162.213 292.51 161.078 292.477 160.511 293.199C160.26 293.518 160.326 293.366 160.396 293.808C161.182 294.354 169.784 294.201 171.448 294.227C172.216 294.206 173.533 294.012 174.256 294.165C174.995 294.08 175.661 293.934 176.373 293.715L176.529 293.344L176.405 293.185C176.076 292.854 175.574 292.609 175.117 292.521C174.097 292.324 172.82 292.434 171.775 292.41ZM175.173 290.337C172.242 289.655 168.553 289.981 165.544 289.938C164.547 289.962 163.416 289.873 162.467 290.194C162.179 290.657 162.233 290.89 162.228 291.426C162.508 291.58 162.464 291.601 162.716 291.625C164.756 291.824 166.942 291.571 169.001 291.605L173.506 291.807C173.868 291.806 174.601 291.878 174.933 291.776C175.072 291.732 175.156 291.586 175.267 291.492C175.346 290.971 175.48 290.781 175.173 290.337ZM99.6436 191.339C100.575 194.589 101.693 197.801 102.467 201.094C104.799 211.018 105.459 221.396 104.854 231.559L103.653 244.268L102.307 254.419C102.174 255.477 101.587 257.355 101.797 258.346L99.1113 279.137C98.6261 282.586 98.227 286.041 97.3545 289.421L103.41 291.12C104.114 291.305 104.661 291.195 105.296 290.842C102.001 289.421 98.0005 290.5 98.5 287.5C98.6092 281.102 103.198 268.131 102.335 261.603L102.289 261.297C102.323 258.528 102.881 255.936 103.359 253.221L104.442 246.367C105.878 236.856 106.999 227.449 106.36 217.813C106.068 213.42 105.331 209.184 104.363 204.891C103.312 200.232 101.944 195.546 99.6436 191.339ZM169.029 287.688C167.117 287.692 164.057 287.325 162.337 288.089L162.249 288.613C163.396 289.419 164.708 289.208 166.071 289.219L171.823 289.254C172.637 289.237 174.702 289.406 175.303 288.951C175.367 288.447 175.446 288.337 175.19 287.908C173.341 287.423 170.952 287.684 169.029 287.688ZM217.534 286.05C215.283 286.045 212.961 285.929 210.718 286.087C209.836 286.184 208.674 286.298 208.118 287.1C207.886 287.433 207.846 287.67 207.803 288.062C207.905 288.157 207.978 288.303 208.11 288.345C208.979 288.622 210.72 288.428 211.673 288.432L222.459 288.455L225.312 288.263C224.759 287.377 224.514 286.603 223.425 286.317C221.62 285.843 219.397 286.055 217.534 286.05ZM168.267 273.851C167.691 273.918 166.699 273.911 166.19 274.154C165.695 274.391 164.972 275.483 164.593 275.93C164.526 276.008 164.169 276.494 164.083 276.531C163.707 276.689 162.923 276.697 162.496 276.761L158.484 277.328L163.396 287.104L169.603 287.04L174.838 286.998C175.296 285.423 176.084 284.064 176.793 282.596L179.062 277.336L172.557 276.477C172.629 275.814 172.599 275.584 172.151 275.066C171.191 273.952 170.275 273.833 168.865 273.828L168.267 273.851ZM218.415 283.831L211.848 283.827C211.248 284.045 211.108 284.07 210.692 284.583C210.786 284.983 210.677 284.885 210.986 285.064C211.669 285.46 213.061 285.374 213.857 285.396L221.226 285.465L221.893 285.374C222.127 284.925 222.062 284.777 222.012 284.264C221.088 283.715 219.478 283.839 218.415 283.831ZM220.554 282.003C219.555 281.319 215.517 281.773 214.204 281.828C212.937 281.947 212.391 282.037 211.496 282.964L211.633 283.223L218.432 283.185C219.2 283.15 220.031 283.3 220.611 282.78L220.554 282.003ZM187.013 278.024C186.143 278.033 184.364 277.81 183.601 278.062C183.259 278.175 182.277 279.317 181.978 279.622C181.748 279.857 181.639 280.061 181.537 280.37L181.682 280.741C182.945 281.205 184.552 281.101 185.892 281.156L196.827 281.268C198.577 281.247 201.199 281.548 202.792 280.925L203.004 280.555C202.54 279.661 201.743 278.785 200.896 278.238L198.56 278.08C197.506 278.263 196.172 278.109 195.09 278.1L187.013 278.024ZM215.476 266.097C214.88 266.435 214.692 266.608 214.366 267.209C214.288 268.197 214.41 268.553 214.856 269.433C214.413 269.73 213.944 269.82 213.486 270.07C212.15 270.801 210.341 272.759 210.053 274.252C209.667 276.252 210.068 278.216 211.292 279.848C211.642 280.315 212.088 280.713 212.519 281.102L217.889 281.08C218.887 281.026 220.121 281.07 220.875 280.29C221.859 279.274 222.658 277.339 222.586 275.946C222.501 274.294 221.907 272.452 220.59 271.375C219.522 270.503 218.075 270.37 217.09 269.62L217.221 269.527C217.724 269.156 218.157 268.671 218.262 268.031C218.326 267.636 218.246 267.258 218.01 266.931C217.669 266.459 217.047 266.032 216.452 266.009L215.476 266.097ZM199.298 275.874C197.639 275.476 195.726 275.655 194.022 275.664L184.478 275.833C184.03 276.175 183.97 276.518 183.831 277.034C184.539 277.676 188.557 277.314 189.732 277.468L194.748 277.387C196.38 277.388 198.932 277.73 200.438 277.218L200.468 276.92C200.296 276.801 200.133 276.714 199.954 276.612C199.652 276.439 199.494 276.152 199.298 275.874ZM199.028 274.331C198.203 273.81 197.115 273.932 196.157 273.962L191.614 274.096C189.557 274.106 187.552 273.947 185.491 274.068L185.209 274.534C185.336 274.652 185.444 274.795 185.59 274.889C186.185 275.27 188.07 275.102 188.818 275.105L198.366 275.056C198.627 275.05 198.79 275.027 199.028 274.928V274.331ZM187.758 272.392C187.033 272.461 186.428 272.433 185.88 272.954L186.039 273.339C187.036 273.614 188.349 273.48 189.39 273.48L196.771 273.362L198.102 273.262L198.33 272.954C197.866 272.472 197.471 272.366 196.805 272.332L187.758 272.392ZM170.903 264.553C170.42 264.31 170.047 264.31 169.503 264.396L169.421 264.429L166.661 264.475L166.666 267.497L164.737 267.311C164.265 267.913 164.383 269.158 164.421 269.943L167.318 270.063C167.292 270.811 167.041 272.497 167.425 273.072L168.491 273.107L170.298 273.078C170.927 272.304 169.942 270.495 170.762 270.098C171.391 270.158 171.998 270.264 172.615 270.086C173.021 269.415 173.025 268.224 172.854 267.439L170.422 267.102C170.66 266.307 171.073 265.382 170.903 264.553ZM195.394 257.144C191.793 256.947 187.941 257.256 184.405 257.89C183.126 258.119 182.086 258.098 181.049 258.995L181.179 259.277C183.365 259.637 185.659 259.463 187.869 259.424L196.391 259.402C196.77 259.709 197.24 259.606 197.72 259.617C197.719 259.753 197.687 259.921 197.73 260.052L197.754 260.106L181.651 260.13C183.841 263.775 185.719 267.589 186.828 271.712C187.851 271.931 189.033 271.86 190.079 271.89L197.295 271.894C198.237 267.952 199.833 263.704 202.072 260.294L202.168 260.225C202.364 260.051 202.385 259.787 202.481 259.52L202.796 259.146L202.643 258.77C201.308 258.24 199.94 258.283 198.565 257.977C197.488 257.736 196.524 257.206 195.394 257.144ZM194.302 254.73C193.126 254.49 192.003 254.531 190.812 254.565C189.721 255.088 188.846 256.012 187.882 256.737L192.287 256.647L195.224 256.501C194.994 255.921 194.785 255.131 194.302 254.73ZM117.667 141.85V143.13C117.672 145.607 117.338 148.143 117.255 150.63L117.01 168.849C117.015 170.949 116.702 173.622 117.148 175.657L125.181 178.838L129.149 180.188C129.91 180.421 130.656 180.489 131.304 180.979L123.683 186.283C122.106 187.4 120.277 188.473 118.9 189.828L118.905 190.153L119.719 190.937L119.714 190.959L123.566 196.528C127.646 202.662 162.987 255.474 164.737 256.319C163.348 254.399 162.128 252.207 160.822 250.21L152.363 237.448L130.034 204.441L124.037 195.53L121.437 191.768C121.09 191.265 120.591 190.686 120.498 190.069L120.471 189.792L132.283 180.837L131.829 180.536C129.889 179.542 127.638 178.922 125.593 178.135C123.115 177.181 120.645 176 118.109 175.244L118.438 141.362L117.667 141.85ZM191.363 241.94C191.239 241.917 191.267 241.932 190.994 242L190.873 242.806C190.549 242.947 190.254 243.039 189.908 243.113L189.801 243.484L189.899 243.661C190.301 244.412 190.345 244.968 190.406 245.8L190.481 246.576L187.177 246.317L187.266 249.859L190.438 249.897L190.163 253.407L193.282 253.579L193.839 253.442C194.03 252.249 193.945 250.926 193.958 249.713L197.041 249.824L197.055 246.512C196.278 246.519 194.635 246.745 194.086 246.263C193.993 245.154 194.286 244.453 194.714 243.467C193.855 242.787 193.28 242.124 192.148 242.053C191.973 242.042 191.933 242.04 191.883 242.033L191.363 241.94Z" fill="#0C0C0C"/>
</g>
<defs>
<clipPath id="clip0_1290_3">
<rect width="320" height="320" fill="white"/>
</clipPath>
</defs>
</svg>
